<?xml version="1.0" encoding="utf-8"?>
<!-- Generator: Adobe Illustrator 23.0.1, SVG Export Plug-In . SVG Version: 6.00 Build 0)  -->
<svg version="1.1" id="Layer_1" xmlns="http://www.w3.org/2000/svg" xmlns:xlink="http://www.w3.org/1999/xlink" x="0px" y="0px"
	 viewBox="0 0 401 512" style="enable-background:new 0 0 401 512;" xml:space="preserve">
<style type="text/css">
	.st0{clip-path:url(#SVGID_2_);}
	.st1{display:none;fill:#00112C;}
	.st2{fill:#FFFFFF;}
	.st3{fill:#00112C;}
	.st4{fill:url(#SVGID_3_);}
	.st5{fill:url(#SVGID_4_);}
</style>
<g>
	<defs>
		<rect id="SVGID_1_" x="0.5" width="400" height="512"/>
	</defs>
	<clipPath id="SVGID_2_">
		<use xlink:href="#SVGID_1_"  style="overflow:visible;"/>
	</clipPath>
	<g class="st0">
		<path class="st1" d="M400.5,0H0.5v512h400V0z"/>
		<path class="st2" d="M400.5,512V392.1c-22.6,1-48.5,9.6-60.9,9.5c-15.7-0.2-31.5-10.1-56.6-8.3c-85,6.2-120.7,35.8-158.9,42
			c-22.5,3.7-34.9-3.4-64.5,3.7c-35.2,8.3-32.1,15.3-59.1,15.3V512H400.5z"/>
		<path class="st3" d="M387.1,415.5c0.6,0.8-0.7,3-12.5,1.8c-8.7-0.9-15.2,0.1-16.4,0.6c-2.7,1.1-5.8-1.3-8.9-1
			c-3,0.3-3.8,1.7-9.6,1.7c-8,0-15.6-0.9-22.2-1.1c-5.2-0.2-10.1,0.5-14.1,0.4c-7.6-0.1-12.4-1.1-11.1-2.4c1.2-1.2,2.1-1,6.2-1.3
			c1-0.1,2.8-0.7,4.2-0.8c1.2-0.1,4.4,0.1,5.8,0c1.4-0.1,2.9-0.3,4.4-0.4c3.6-0.4,7.5,1.2,11.8,1.1c4.7-0.1,9.8-1.7,15-1.7
			c3.7,0,8.2,0.9,11.7,1.1c12.9,0.6,8-1.1,20.6-1.1c3.9,0,6.8,1.9,9,2.1C384.5,414.8,386.1,414.3,387.1,415.5z"/>
		<path class="st3" d="M58,473.6c-0.7,7.1,24,2.9,29.2,2.6c23,1.9,41.3,9.8,63.5,2.4c4.8-1.6,9.8-2,14.7-1.2
			c32.4,5.2,62.5,8.6,94.8,1.4c4.3-1,8.7-1.4,13.1-1.2c12.6,0.5,25.7,0.5,36.7-5.1c30.3-7,7.9-13.7-14.7-9.2
			c-23.8,4.7-39.7-11.6-67.7-8.1c-23.4,2.9-37.7-3.6-57-3.9c-17.3,0.5-36.5,1.3-53.5,9.7c-5.9,2.9-12.1,4.5-18.3,4.8
			C80.6,466.5,58.6,467.7,58,473.6z"/>
		<path class="st2" d="M309.8,81.8c7.3,0,13.3-6,13.3-13.3s-6-13.3-13.3-13.3c-7.3,0-13.3,6-13.3,13.3S302.5,81.8,309.8,81.8z"/>
		<path class="st3" d="M309.8,82.3c-7.6,0-13.8-6.2-13.8-13.8s6.2-13.8,13.8-13.8c7.6,0,13.8,6.2,13.8,13.8S317.5,82.3,309.8,82.3z
			 M309.8,55.7c-7.1,0-12.8,5.7-12.8,12.8c0,7.1,5.7,12.8,12.8,12.8c7.1,0,12.8-5.7,12.8-12.8C322.6,61.4,316.9,55.7,309.8,55.7z"/>
		<path class="st2" d="M321.7,62.5c0.4,0.8,0.7,1.5,0.9,2.4c1.9,0.2,3.6,0.5,5.1,0.9c5.5,1.2,6.6,2.5,6.6,2.8c0,0.3-1.1,1.6-6.6,2.8
			c-1.6,0.3-3.3,0.6-5.1,0.9c-3.8,0.5-8.2,0.7-12.8,0.7c-4.6,0-9-0.3-12.8-0.7c-1.9-0.2-3.6-0.5-5.1-0.9c-5.5-1.2-6.6-2.5-6.6-2.8
			c0-0.3,1.1-1.6,6.6-2.8c1.6-0.3,3.3-0.6,5.1-0.9c0.2-0.8,0.5-1.6,0.9-2.4c-7.7,0.8-15,2.6-15,6s7.3,5.2,15,6
			c4.2,0.5,8.6,0.6,11.9,0.6c3.3,0,7.6-0.2,11.9-0.6c7.7-0.8,15-2.6,15-6S329.4,63.3,321.7,62.5z"/>
		<path class="st3" d="M309.8,75.6c-3.9,0-8.2-0.2-11.9-0.6c-10.2-1.1-15.4-3.3-15.4-6.5c0-3.2,5.2-5.4,15.4-6.5l0.9-0.1l-0.4,0.8
			c-0.4,0.7-0.7,1.5-0.9,2.3l-0.1,0.3l-0.3,0c-1.8,0.2-3.5,0.5-5.1,0.8c-4.5,1-5.8,1.9-6.1,2.3c0.3,0.3,1.7,1.3,6.1,2.3
			c1.5,0.3,3.3,0.6,5.1,0.8c3.8,0.5,8.2,0.7,12.7,0.7c4.5,0,8.9-0.3,12.7-0.7c1.8-0.2,3.5-0.5,5.1-0.8c4.5-1,5.8-1.9,6.1-2.3
			c-0.3-0.3-1.7-1.3-6.1-2.3c-1.5-0.3-3.3-0.6-5.1-0.8l-0.3,0l-0.1-0.3c-0.2-0.8-0.5-1.6-0.9-2.3l-0.4-0.8l0.9,0.1
			c10.2,1.1,15.4,3.3,15.4,6.5c0,3.2-5.2,5.4-15.4,6.5C318,75.4,313.7,75.6,309.8,75.6z M297.1,63.1c-8.7,1-13.6,3-13.6,5.4
			c0,2.5,5.3,4.5,14.5,5.5c3.7,0.4,8,0.6,11.8,0.6c3.8,0,8.1-0.2,11.8-0.6c9.2-1,14.5-3,14.5-5.5c0-2.4-4.9-4.4-13.6-5.4
			c0.2,0.4,0.3,0.9,0.5,1.3c1.7,0.2,3.4,0.5,4.8,0.8c5.2,1.1,7,2.5,7,3.3s-1.8,2.2-7,3.3c-1.6,0.3-3.3,0.6-5.2,0.9
			c-3.9,0.5-8.3,0.7-12.9,0.7c-4.6,0-9-0.3-12.9-0.7c-1.9-0.2-3.6-0.5-5.2-0.9c-5.2-1.1-7-2.5-7-3.3c0-0.8,1.8-2.2,7-3.3
			c1.5-0.3,3.1-0.6,4.8-0.8C296.8,63.9,296.9,63.5,297.1,63.1z"/>
		
			<linearGradient id="SVGID_3_" gradientUnits="userSpaceOnUse" x1="286.7735" y1="449.3651" x2="332.788" y2="449.3651" gradientTransform="matrix(1 0 0 -1 0 514)">
			<stop  offset="0" style="stop-color:#A177FF"/>
			<stop  offset="1" style="stop-color:#02CEFF"/>
		</linearGradient>
		<path class="st4" d="M291.9,64.1C291.9,64.1,291.9,64.1,291.9,64.1C291.8,64.1,291.8,64.1,291.9,64.1l-0.1,0l0,0l0,0
			c-0.1,0-0.2,0.1-0.2,0.1c0,0.1,0,0.2,0,0.2l0,0l0,0c0,0,0,0,0,0l0,0.1l0,0.1l0.1,0.1l0.1,0l0.1,0l0.1,0l0.1,0c0-0.1,0.1-0.1,0-0.2
			v0c0,0,0.1,0,0.1-0.1l0-0.1l0,0L291.9,64.1C292,64.2,292,64.2,291.9,64.1z M291.9,64.5C291.9,64.5,291.9,64.5,291.9,64.5
			L291.9,64.5C292,64.5,291.9,64.5,291.9,64.5z M292.1,65.1L292.1,65.1c-0.1,0-0.2,0.1-0.3,0.1c0,0,0,0-0.1,0l0,0l0,0l0.1,0l0.1,0
			L292.1,65.1L292.1,65.1z M293.5,63.6c0.1,0,0.2,0,0.3,0l0,0l-0.1,0.1l-0.1,0L293.5,63.6L293.5,63.6z M289.4,64.5
			C289.4,64.5,289.4,64.5,289.4,64.5C289.4,64.6,289.4,64.6,289.4,64.5L289.4,64.5L289.4,64.5C289.5,64.5,289.5,64.5,289.4,64.5
			c0.2-0.1,0.4-0.1,0.5-0.1c0,0,0,0,0,0.1c0,0,0,0,0.1,0l0.1,0l0,0l0,0l0,0l0,0.1l0,0l0,0v0l0,0.1c0,0-0.1,0.1-0.1,0.1
			c0,0-0.1,0-0.1,0c0,0,0,0-0.1,0c0,0-0.1,0-0.1,0c0,0,0,0,0,0c0,0,0,0,0,0l-0.1,0c0,0,0,0,0,0c0,0,0,0,0,0c0,0,0,0,0,0l0,0h0l0.1,0
			c0,0,0,0,0,0c0.1,0.1,0.1,0.1,0,0.2c0,0,0,0.1-0.1,0.1c0,0,0,0,0,0c0,0,0,0.1-0.1,0.2l-0.1,0l-0.1,0l-0.1,0l0,0
			c-0.1-0.1,0-0.3,0-0.3l0,0c0-0.1,0.1-0.2,0.1-0.2h0l-0.1,0c0,0-0.1-0.1-0.1-0.1l0,0v0l0,0l0,0l-0.1,0c0,0-0.1,0-0.1-0.1
			C289.2,64.6,289.3,64.5,289.4,64.5z M294.2,64.3c0.1,0.1,0,0.1,0,0.2c0,0,0,0.1-0.1,0.1c0,0,0,0.1,0,0.1c-0.1,0-0.2,0-0.4,0.1
			c0,0,0-0.1,0-0.1l0,0l0,0l0-0.1l0,0l0,0l0-0.1l0.1-0.1c0,0,0,0,0,0l0,0h0l0-0.1l0,0l0.1,0l0.1,0L294.2,64.3L294.2,64.3
			C294.2,64.3,294.2,64.3,294.2,64.3z M291.5,64c0,0.1,0,0.2-0.1,0.3l-0.1,0l-0.1,0l-0.1,0c0,0,0,0,0,0l0,0c0,0.1-0.1,0.2-0.1,0.2
			H291l-0.1,0l-0.1-0.1l0,0l0,0c0,0,0-0.1,0-0.1c0,0,0,0,0,0c-0.1,0-0.1-0.1-0.1-0.1C291,64.1,291.3,64,291.5,64z M288.3,66
			L288.3,66c-0.2-0.1-0.2-0.2-0.1-0.3c0.1-0.1,0.2-0.1,0.2-0.1l0,0l0,0l0,0c0,0.1,0,0.2,0,0.2L288.3,66L288.3,66z M286.9,66
			c-0.1-0.1-0.1-0.1-0.1-0.2c0-0.1,0.1-0.1,0.2-0.2l0.1,0l0,0l0,0c0.1,0.1,0.1,0.2,0,0.3l-0.1,0l-0.1,0L286.9,66
			C286.9,66,286.9,66,286.9,66z M292.5,63.8L292.5,63.8c0,0,0.1,0,0.1,0L292.5,63.8L292.5,63.8z M287.5,65.1c0.1,0.1,0.1,0.2,0,0.3
			l-0.1,0l0,0l-0.1,0c0,0,0,0,0,0c-0.1,0-0.1-0.1-0.1-0.2c0,0,0,0,0,0C287.3,65.2,287.4,65.1,287.5,65.1z M295.3,63.3L295.3,63.3
			C295.3,63.3,295.3,63.3,295.3,63.3L295.3,63.3C295.3,63.4,295.3,63.4,295.3,63.3L295.3,63.3l-0.1,0.1l0,0.1c0,0,0,0,0,0.1
			c0,0,0,0,0,0c0,0,0,0,0,0l0,0l0,0l0,0c0,0,0,0,0,0c0,0,0,0,0-0.1c-0.1,0-0.2,0-0.3,0.1l0,0.1l0,0h0c0,0,0,0,0,0
			c0,0.1,0,0.2,0.1,0.2c0,0,0,0,0,0l0,0c0,0.1,0,0.1,0,0.2c-0.1,0-0.2,0-0.3,0.1c0,0,0,0,0,0.1l0,0l-0.1,0l-0.1,0l0,0l0,0.1l0,0.1
			l0,0.1l0,0l0.1,0l0.1,0l0.1,0l0,0l0,0l0.1,0c0,0,0,0,0,0c0.1,0,0.1-0.1,0.2-0.2l0-0.1l0,0c0,0,0,0,0.1,0c0.1,0,0.1,0,0.1,0
			c0,0,0,0.1,0.1,0.1l0.1,0l0,0l0,0c0,0,0,0,0,0l0,0.1l0,0.1l0.1,0.1l0,0c0,0,0,0,0,0l0,0l0.1,0l0.1,0l0.1-0.1c0,0,0,0,0,0
			c0,0,0.1,0,0.1-0.1v0c0,0,0,0,0,0c0,0,0,0,0,0c0,0,0,0-0.1,0.1c0,0,0,0.1,0,0.1c0,0,0,0,0,0c0,0,0,0-0.1,0c0,0,0,0-0.1,0.1
			c0.5-0.1,0.9-0.1,1.4-0.2c0,0,0,0,0,0l0,0c0,0,0.1,0,0.1,0c0.1-0.2,0.1-0.3,0.2-0.5h0c0,0,0,0-0.1,0l0,0c0,0,0,0,0,0c0,0,0,0,0,0
			c0,0,0,0-0.1,0h0l0.1,0c0.1,0,0.1-0.1,0.1-0.1l0,0c0,0,0.1-0.1,0.1-0.1c0,0,0,0,0,0c0.1-0.2,0.2-0.4,0.2-0.6
			C296.9,63.1,296.1,63.2,295.3,63.3C295.3,63.3,295.3,63.3,295.3,63.3z M295.3,63.8C295.3,63.8,295.3,63.8,295.3,63.8
			C295.3,63.8,295.3,63.8,295.3,63.8C295.3,63.8,295.3,63.8,295.3,63.8z M297.7,63C297.7,63,297.7,63,297.7,63
			C297.7,63,297.7,63,297.7,63C297.7,63,297.7,63,297.7,63C297.7,63,297.7,63,297.7,63C297.7,63,297.7,63,297.7,63z M297.2,63.8
			C297.2,63.8,297.2,63.8,297.2,63.8C297.2,63.8,297.2,63.8,297.2,63.8L297.2,63.8L297.2,63.8z M296,63.6
			C296,63.5,296,63.5,296,63.6C296,63.5,296,63.5,296,63.6c0,0,0.1,0,0.1,0l0.1,0l0,0l0,0c0,0,0,0,0,0l0,0c0,0,0.1-0.1,0.1-0.1
			c0,0,0.1,0,0.1,0c0,0,0,0,0,0l0,0l0,0l0,0c0,0,0,0,0,0.1c0,0-0.1,0-0.1,0l-0.1,0c-0.1,0.1-0.1,0.2,0,0.3l0.1,0.1h0.1l0.1-0.1
			c0,0,0,0,0,0c0.1,0,0.1-0.1,0.1-0.1c0,0,0,0,0,0l0.1,0l0,0c0,0,0,0,0,0c-0.1,0-0.1,0.2-0.1,0.3c0,0,0,0,0,0c0,0,0,0.1,0,0.1l0,0
			l0,0.1l0.1,0l-0.1,0l0,0l0,0l-0.1,0c0,0-0.1,0-0.1,0l0,0c0,0-0.1,0-0.1,0c0,0,0,0,0,0c0,0,0,0,0-0.1c0,0-0.1,0-0.1-0.1
			c0-0.1,0-0.1,0-0.2l-0.1-0.1l-0.1,0c0,0,0,0,0,0l0-0.1c0,0,0,0,0,0c0,0,0,0,0-0.1C295.9,63.7,295.9,63.7,296,63.6
			C295.9,63.6,295.9,63.6,296,63.6z M295.8,64L295.8,64C295.8,64,295.7,64,295.8,64C295.7,64,295.7,64,295.8,64
			C295.7,64,295.7,64,295.8,64C295.7,64,295.7,64,295.8,64z M295.6,63.5C295.6,63.5,295.6,63.6,295.6,63.5c0,0.1,0.1,0.1,0.1,0.1
			l0,0l0,0l0,0C295.6,63.6,295.6,63.6,295.6,63.5C295.5,63.6,295.5,63.6,295.6,63.5L295.6,63.5C295.5,63.6,295.6,63.5,295.6,63.5z
			 M292,63.9L292,63.9L292,63.9c0.1-0.1,0.3-0.1,0.4-0.2l0,0.1c0,0,0,0.1,0,0.1l0,0.1l0,0.1l0,0.1l0,0c0,0,0,0,0,0l0,0l0,0l0,0h0
			c0.1,0,0.1,0.1,0.2,0.1c0,0,0,0,0,0.1l0,0.1l0,0l0,0.1c-0.1,0.1-0.2,0.1-0.3,0.1c-0.1,0-0.1,0-0.1-0.1c0-0.1,0-0.1,0-0.2
			c0,0,0,0,0-0.1c0,0,0,0,0,0C292.1,64.2,292,64.1,292,63.9z M287.5,65.7c0.1-0.1,0.2,0,0.2,0l0,0l0,0l0,0c0,0.1-0.1,0.1-0.1,0.1
			l-0.1,0l-0.1,0l-0.1-0.1C287.4,65.9,287.4,65.8,287.5,65.7z M290.1,65.3l0.1,0c0.1,0,0.1,0.1,0.1,0.2c-0.1,0-0.2,0.1-0.3,0.1
			c0,0-0.1-0.1-0.1-0.1l0-0.1l0,0l0,0C289.9,65.3,290,65.2,290.1,65.3L290.1,65.3z M294.7,63.7C294.6,63.7,294.6,63.7,294.7,63.7
			c0,0.1,0,0.2,0,0.2c0,0.1-0.1,0.1-0.1,0.1l-0.1,0l0,0l-0.1,0c0,0,0,0,0,0c0,0-0.1-0.1-0.1-0.2l0,0l0,0l0,0c0,0,0,0,0,0
			c0,0,0-0.1,0-0.1c0-0.1,0.1-0.1,0.1-0.1c0.1,0,0.1,0,0.2,0.1C294.7,63.6,294.7,63.6,294.7,63.7z M329.9,64.4c0,0,0,0.1,0,0.1
			c0,0,0,0.1-0.1,0.1c-0.1,0.1-0.2,0.1-0.2,0c0,0-0.1-0.1-0.1-0.1c0,0-0.1,0-0.1-0.1l0,0c0,0-0.1,0-0.1,0.1c0,0,0,0,0,0
			c0,0,0.1,0.1,0.1,0.2l0,0l0,0c0.1,0.1,0.1,0.2,0.1,0.3c0,0,0,0,0,0.1l-0.1,0.1l0,0c0.1,0,0.2,0.1,0.2,0.1v0.1l0,0.1l-0.1,0.1l0,0
			c0,0,0,0,0,0c-0.1,0-0.2,0-0.2,0c0,0-0.1-0.1-0.1-0.2l0-0.1l0,0l0,0l-0.1,0l-0.1-0.1c0,0,0-0.1,0-0.1l0,0l0-0.1l0,0c0,0,0,0,0,0
			c0,0,0,0,0,0c-0.1,0-0.1,0-0.1-0.1c0,0-0.1-0.1,0-0.2l0.1-0.1l0,0l0,0l-0.1,0l0-0.1c0,0,0-0.1,0-0.1l0,0l0,0
			C329.4,64.3,329.6,64.3,329.9,64.4z M328.9,64.6c0,0,0,0.1,0,0.2l0,0l0,0.1l-0.1,0.1l0,0l-0.1,0l-0.1,0v0l0,0l-0.1,0l-0.1-0.1
			c0,0,0-0.1,0.1-0.2l0,0l0,0l0.1,0L328.9,64.6L328.9,64.6z M330.5,65.5l0.1-0.1C330.6,65.4,330.6,65.4,330.5,65.5l0-0.1
			c0.1-0.1,0.1-0.1,0.2-0.1c0,0,0,0,0.1,0l0,0l0,0l0,0c0,0,0.1,0.1,0.1,0.2c0,0.1,0,0.1-0.1,0.2l0,0l0,0l0,0c0,0,0,0,0,0
			c-0.1,0-0.1,0-0.2-0.1c0,0,0,0,0,0L330.5,65.5L330.5,65.5z M329,65L329,65c0.1,0.2,0.1,0.3,0,0.3c0,0-0.1,0-0.1,0
			c-0.1,0-0.1,0-0.2-0.1l0,0l0.1,0l0.1,0l0,0l0-0.1c0-0.1,0-0.2,0.1-0.2c0,0,0.1,0,0.1,0c0,0,0,0,0,0L329,65L329,65z M330.1,65.2
			L330.1,65.2l0.1,0.2l0,0.1c0,0-0.1,0.1-0.2,0.1c-0.1,0-0.1,0-0.1-0.1l0-0.1l0,0l0-0.1C329.9,65.2,330,65.2,330.1,65.2z M293.5,64
			L293.5,64l0.1,0l0.1,0.1l0,0.1v0.1c0,0.1-0.1,0.1-0.1,0.1l0,0l-0.1,0l-0.1,0l0,0l-0.1-0.1l0-0.1l0-0.1l0-0.1L293.5,64L293.5,64z
			 M331.8,66.2c0,0,0,0.1,0,0.1c-0.1,0-0.2-0.1-0.3-0.1c0,0,0,0,0.1,0c0,0,0,0,0,0l0.1,0L331.8,66.2L331.8,66.2z M325.4,64.6
			C325.4,64.7,325.4,64.7,325.4,64.6c-0.2,0-0.4,0-0.6,0c0,0,0-0.1,0-0.1l0.1-0.1l0.1,0l0.1,0l0,0l0,0l0.1,0l0.1,0.1l0,0
			c0,0,0,0,0,0L325.4,64.6L325.4,64.6L325.4,64.6z M326.5,63.6c0.1,0,0.3,0.1,0.4,0.1c0,0,0,0.1,0,0.1l-0.1,0.1l-0.1,0l-0.1,0
			c0,0,0-0.1-0.1-0.1C326.5,63.7,326.5,63.7,326.5,63.6L326.5,63.6z M332.2,65.5L332.2,65.5L332.2,65.5
			C332.2,65.5,332.2,65.5,332.2,65.5L332.2,65.5l0-0.1l0.1,0l0.1,0c0,0,0,0,0,0c0,0,0,0,0.1,0c0.1-0.1,0.2-0.1,0.2,0l0,0.1l0,0
			l0,0.1l0,0.1l0,0.1l0,0l-0.1,0c-0.1,0-0.1,0-0.1-0.1c0,0,0,0,0,0l0,0h0c0,0,0,0,0,0c0,0-0.1,0-0.1,0c0,0,0,0,0,0L332.2,65.5l0,0.1
			C332.2,65.6,332.2,65.6,332.2,65.5L332.2,65.5L332.2,65.5L332.2,65.5L332.2,65.5z M324.6,64.6C324.6,64.6,324.6,64.6,324.6,64.6
			C324.6,64.6,324.6,64.6,324.6,64.6L324.6,64.6z M331.1,65.6C331.1,65.6,331.1,65.6,331.1,65.6L331.1,65.6l-0.1-0.1v0l0,0l0,0l0,0
			c0,0,0,0,0,0h0l0-0.1l0-0.1c0-0.1,0.1-0.1,0.1-0.1c0,0,0,0,0,0l0,0c0-0.1,0.1-0.1,0.2-0.1l0.1,0l0,0l0,0.1l0,0.1l0,0.1l0,0
			l-0.1,0.1c0,0,0,0,0,0l0,0l0,0l0,0c0,0,0,0,0,0C331.2,65.6,331.2,65.6,331.1,65.6z M328.2,65.1L328.2,65.1
			C328.2,65.1,328.3,65.1,328.2,65.1L328.2,65.1l0.2,0.1l0,0c0,0,0,0.1,0,0.1v0c-0.1,0-0.3-0.1-0.4-0.1l0,0l0,0L328.2,65.1
			C328.1,65.1,328.1,65.1,328.2,65.1c-0.1,0.1-0.2,0.1-0.2,0.1l0,0l-0.1,0l0,0c0,0,0,0,0,0l0-0.1l0-0.1l0.1-0.1l0,0l0,0l0.1,0l0,0h0
			c0.1,0,0.1,0,0.1,0l0,0l0,0.1l0,0.1C328.3,64.9,328.3,65,328.2,65.1L328.2,65.1L328.2,65.1L328.2,65.1L328.2,65.1z M294.8,64.2
			C294.8,64.2,294.8,64.2,294.8,64.2L294.8,64.2C294.8,64.2,294.8,64.2,294.8,64.2z M293.3,64.7L293.3,64.7L293.3,64.7
			C293.3,64.6,293.3,64.6,293.3,64.7L293.3,64.7l0.1-0.1l0.1-0.1c0,0,0.1,0,0.1,0l0,0l0.1,0l0.1,0.1c0,0.1,0,0.2-0.1,0.2l0,0l0,0
			c-0.2,0-0.4,0.1-0.7,0.1c0,0,0-0.1,0-0.1c0,0,0-0.1,0.1-0.1l0,0l0,0l0,0C293.2,64.7,293.2,64.7,293.3,64.7
			C293.2,64.7,293.3,64.7,293.3,64.7z M293.2,63.8c0,0,0,0.1,0,0.1c0,0.1-0.1,0.1-0.1,0.1l0,0l0,0l-0.1,0l0,0l0,0l0,0c0,0,0,0,0,0
			l0,0l0,0.1v0.1l0,0.1l0,0l-0.1,0l-0.1,0l-0.1,0l0-0.1l0-0.1l0-0.1l0-0.1c-0.1,0-0.1-0.1-0.1-0.1c0,0,0-0.1,0.1-0.2l0,0l0,0l0,0
			c0,0,0,0,0.1,0c0,0,0-0.1,0.1-0.1l0.1,0l0.1,0L293.2,63.8C293.2,63.8,293.2,63.8,293.2,63.8z M295,64.4c0,0,0-0.1,0-0.2l0-0.1l0,0
			l0.1,0l0.1,0l0.1,0l0,0l0,0.1c0,0.1,0,0.1-0.1,0.2c0,0-0.1,0.1-0.2,0C295.1,64.5,295,64.4,295,64.4z M294.8,64.5L294.8,64.5l0.1,0
			l0,0l0,0l0,0c-0.1,0-0.2,0-0.3,0C294.7,64.6,294.7,64.6,294.8,64.5z M324.5,64.6L324.5,64.6c-0.1-0.1-0.2-0.1-0.3-0.1c0,0,0,0,0,0
			l0-0.1l0-0.1l0,0c0,0,0-0.1,0-0.1l0-0.1l0,0c0.1-0.1,0.1-0.1,0.1-0.2c0,0,0,0,0.1,0c0,0.1,0.1,0.1,0.2,0.1c0.1,0,0.1,0,0.2-0.1
			c0,0,0,0,0-0.1c0,0,0,0,0,0c0,0,0,0.1,0.1,0.1l0.1,0l0,0c0,0,0,0,0,0c0,0.1,0,0.1,0,0.2l0,0c0,0,0,0,0,0l0.1,0l0,0
			c0,0.1,0,0.1,0,0.1l0,0l0,0l0,0c0.1,0,0.2,0,0.3,0c0,0,0,0,0,0.1c0,0,0,0,0,0.1c0,0,0,0,0,0l0,0h0c0,0,0,0-0.1,0
			c0.1,0,0.3,0,0.4,0.1c0,0,0,0,0,0c0,0,0,0,0,0c0.6,0.1,1.2,0.2,1.8,0.3l0,0l0-0.1c-0.1-0.1-0.2-0.1-0.2-0.1l-0.1,0.1l0,0.1v0
			c0,0,0,0-0.1-0.1c0,0,0-0.1,0-0.1l0,0l0.1,0l0,0c0,0,0,0,0.1-0.1l0-0.1l0-0.1l0,0c0,0,0,0-0.1-0.1l-0.1,0l-0.1,0l0,0
			c0,0,0,0-0.1,0.1l0,0.1l0,0l-0.1,0v0l0,0l0,0c0,0-0.1,0-0.1,0l0-0.1l0,0l0-0.1c0-0.1-0.1-0.1-0.1-0.1l0,0l-0.1,0l0,0c0,0,0,0,0,0
			l0,0l0-0.1l0-0.1l0-0.1l0,0l0,0c0,0,0,0,0,0l-0.1,0l-0.1,0l-0.1,0c0,0,0,0,0,0l0,0c0,0-0.1,0-0.1,0.1c0,0,0,0,0,0
			c-0.1,0-0.1,0.1-0.1,0.2v0l0,0l0,0l0,0c0,0,0,0,0,0l0,0c0,0,0,0,0,0v0c0,0,0,0,0,0c0,0,0,0.1,0,0.1c0,0.1,0.1,0.1,0.1,0.1
			c0,0,0,0,0,0.1c0,0-0.1,0-0.1,0l0,0l0,0l-0.1,0l0,0c0,0,0-0.1,0-0.1l0,0l0,0c0,0,0,0,0-0.1l-0.1-0.1l-0.1,0l0,0l0,0
			c0,0,0-0.1,0.1-0.1c0-0.1,0-0.2-0.1-0.2c0,0-0.1,0-0.1,0c-0.1,0-0.1,0.1-0.1,0.1l0,0l0,0l0,0.1l0,0l0,0l0,0l0,0c0,0-0.1,0-0.1,0
			c0,0,0,0,0-0.1l-0.1-0.1l0,0c0,0,0-0.1,0-0.2l0,0l0-0.1v0l0,0c0.1,0,0.1-0.1,0.1-0.1c0,0,0,0,0,0l0,0l0.1,0.1l0.1,0l0.1,0l0.1,0
			l0.1-0.1l0-0.1l0-0.1l0,0c-0.1,0-0.2,0-0.3-0.1l0,0.1l0,0.1c0,0,0,0,0-0.1c-0.1-0.1-0.2-0.1-0.2,0l0,0l0,0c0,0-0.1,0-0.1,0l0,0
			l0,0c0,0-0.1,0-0.1,0c0,0,0,0,0,0c0,0,0,0-0.1,0c0,0,0,0,0,0c0,0,0,0,0,0c-0.9-0.1-1.9-0.3-2.9-0.4c0.1,0.3,0.3,0.6,0.4,0.9
			c0,0,0-0.1,0-0.1c0,0,0,0,0-0.1c0,0.1,0.1,0.1,0.2,0.2l0,0c0,0,0.1,0,0.1,0c0,0,0,0,0,0l0,0c0,0,0,0,0.1,0.1l0,0V64l0,0.1
			c0,0,0,0,0,0h0c0,0,0,0,0,0l0,0c-0.1,0-0.1,0-0.1,0c0,0-0.1-0.1-0.1-0.1c0,0,0,0,0,0c0,0-0.1-0.1-0.1-0.1l0,0l0,0l-0.1,0
			c0,0.1,0.1,0.3,0.1,0.4C323.2,64.4,323.9,64.5,324.5,64.6L324.5,64.6z M322.6,63.3L322.6,63.3L322.6,63.3l-0.1-0.1l0,0
			c0,0,0-0.1,0-0.1l0,0l0,0C322.4,63.2,322.5,63.2,322.6,63.3C322.5,63.2,322.5,63.2,322.6,63.3C322.6,63.3,322.6,63.3,322.6,63.3
			L322.6,63.3z M323.4,64.3L323.4,64.3L323.4,64.3C323.4,64.3,323.4,64.3,323.4,64.3z M323.6,64.4C323.5,64.4,323.5,64.4,323.6,64.4
			C323.5,64.4,323.5,64.4,323.6,64.4L323.6,64.4C323.5,64.4,323.6,64.4,323.6,64.4C323.6,64.4,323.6,64.4,323.6,64.4z M323.7,63.8
			c0,0-0.1,0-0.1,0c0,0,0,0,0-0.1l-0.1,0l0,0h-0.1l0,0c0,0,0,0,0,0c0,0,0,0,0,0c0,0,0-0.1,0-0.1c0,0,0-0.1,0-0.1c0,0,0,0,0,0
			c0,0,0,0,0.1,0c0,0,0,0,0,0l0.1,0l0-0.1c0,0,0,0,0,0l0,0l0,0l0,0l0,0l0,0l0,0l0,0.1l0,0.1C323.6,63.7,323.6,63.8,323.7,63.8
			C323.7,63.8,323.7,63.8,323.7,63.8L323.7,63.8L323.7,63.8z M324.1,63.8L324.1,63.8C324.1,63.7,324.1,63.7,324.1,63.8L324.1,63.8
			C324.1,63.7,324.1,63.7,324.1,63.8L324.1,63.8L324.1,63.8z M324.1,63.7C324.1,63.7,324.1,63.7,324.1,63.7L324.1,63.7L324.1,63.7z
			 M324.1,63.6c0,0,0-0.1,0-0.1l0,0l0,0c0,0,0,0,0,0c0,0,0,0,0,0l0.1,0l0.1,0c0,0,0.1,0,0.1,0l0,0l0,0.1c0,0,0,0,0,0l0,0
			C324.2,63.5,324.2,63.5,324.1,63.6z M326.1,63.6L326.1,63.6L326.1,63.6C326.1,63.6,326.1,63.6,326.1,63.6z M327.2,63.9L327.2,63.9
			C327.2,63.9,327.2,63.9,327.2,63.9c0-0.1-0.1-0.1-0.1-0.2c0.1,0,0.3,0.1,0.4,0.1l0,0l0,0c0,0,0,0,0,0l0,0l0,0.1l0,0.1l0,0l0,0
			l0.1,0l0,0l0.1,0h0c0,0,0.1,0,0.2,0l0.1,0l0,0l0,0.1c0,0,0,0,0,0c0,0,0,0,0,0c0,0,0,0.1,0,0.1c0,0,0.1,0.1,0.1,0.1
			c0,0.1,0,0.1,0,0.2l0,0l0,0l-0.1,0c-0.1,0-0.2-0.1-0.2-0.1c0,0,0,0,0,0c0,0-0.1,0-0.1-0.1h0h-0.1l-0.1,0l0,0c0,0-0.1-0.1-0.1-0.2
			c0,0,0,0,0,0l0,0l-0.1,0c0,0-0.1,0-0.1,0c0,0,0,0,0,0c0,0-0.1,0-0.1,0c-0.1,0-0.2,0-0.2-0.1c0-0.1,0-0.2,0.1-0.2
			C327,63.9,327,63.9,327.2,63.9C327.1,63.9,327.1,63.9,327.2,63.9C327.2,64,327.2,63.9,327.2,63.9z M325.4,63.5
			C325.4,63.5,325.4,63.5,325.4,63.5C325.4,63.5,325.4,63.5,325.4,63.5L325.4,63.5z"/>
		<path class="st2" d="M76.1,73.1c-0.6-7.2-5.1-12.9-10.7-13.7c5.6-0.8,10-6.5,10.7-13.7c0.6,7.2,5.1,12.9,10.7,13.7
			C81.2,60.2,76.7,65.9,76.1,73.1z"/>
		<path class="st2" d="M48.1,85.9c-0.9-1.7-2.3-3.1-3.9-4.1c1.6-1,3-2.5,3.9-4.1c0.9,1.7,2.3,3.1,3.9,4.1
			C50.4,82.8,49,84.2,48.1,85.9z"/>
		<path class="st2" d="M131.1,385c2.4-1.5,4.4-3.7,5.8-6.2c1.4,2.5,3.4,4.7,5.8,6.2c-2.4,1.5-4.4,3.7-5.8,6.2
			C135.5,388.7,133.5,386.5,131.1,385z"/>
		<path class="st2" d="M119.7,399.9c1.2-0.8,2.2-1.8,2.9-3.1c0.7,1.3,1.7,2.3,2.9,3.1c-1.2,0.8-2.2,1.8-2.9,3.1
			C121.9,401.7,120.9,400.6,119.7,399.9z"/>
		<path class="st2" d="M347.1,94.9c-0.9-1.8-2.4-3.2-4.2-4.1c1.8-0.9,3.2-2.4,4.2-4.1c0.9,1.8,2.4,3.2,4.1,4.1
			C349.5,91.7,348,93.2,347.1,94.9z"/>
		<path class="st2" d="M317.3,317c-6.1,9.7-17.8,17.2-19,17.9c-0.1,0-0.1,0.1-0.1,0.2v13.5c0,0.2,0.2,0.3,0.3,0.2
			c1.9-0.9,12.6-6.4,18.5-13.9c0.5-0.6,0.7-1.4,0.7-2.2v-15.6C317.7,316.9,317.4,316.8,317.3,317z"/>
		<path class="st3" d="M298.4,349.2c-0.1,0-0.2,0-0.3-0.1c-0.2-0.1-0.3-0.3-0.3-0.5v-13.5c0-0.2,0.1-0.4,0.3-0.5
			c1.3-0.8,12.9-8.2,18.9-17.8c0.1-0.2,0.4-0.3,0.7-0.3c0.3,0.1,0.4,0.3,0.4,0.6v15.6c0,0.9-0.3,1.7-0.8,2.4
			c-5.9,7.5-16.5,13-18.6,14C298.5,349.2,298.5,349.2,298.4,349.2z M298.5,335.2v13.1c2.5-1.3,12.5-6.5,18.1-13.7
			c0.4-0.5,0.7-1.2,0.7-1.9v-15C311.2,327,300.2,334.2,298.5,335.2z"/>
		<path class="st2" d="M361.7,317c6.1,9.7,17.8,17.2,19,17.9c0.1,0,0.1,0.1,0.1,0.2v13.5c0,0.2-0.2,0.3-0.3,0.2
			c-1.9-0.9-12.6-6.4-18.5-13.9c-0.5-0.6-0.7-1.4-0.7-2.2v-15.6C361.3,316.9,361.6,316.8,361.7,317z"/>
		<path class="st3" d="M380.6,349.2c-0.1,0-0.2,0-0.3-0.1c-2.1-1-12.7-6.5-18.6-14c-0.5-0.7-0.8-1.5-0.8-2.4v-15.6
			c0-0.3,0.2-0.5,0.4-0.6c0.3-0.1,0.5,0,0.7,0.3c6,9.6,17.6,17,18.9,17.8c0.2,0.1,0.3,0.3,0.3,0.5v13.5c0,0.2-0.1,0.4-0.3,0.5
			C380.9,349.2,380.7,349.2,380.6,349.2z M361.7,317.7v15c0,0.7,0.2,1.4,0.7,1.9c5.6,7.1,15.5,12.4,18.1,13.7v-13.1
			C378.8,334.2,367.8,327,361.7,317.7z"/>
		<path class="st2" d="M339.2,190.4c-4.3,10.4-31.7,80.6-21.7,170.5c0,0.3,0.3,0.5,0.6,0.5h21.2h0.8h21.2c0.3,0,0.6-0.2,0.6-0.5
			c10-89.9-17.3-160.1-21.7-170.5C340.2,189.9,339.4,189.9,339.2,190.4z"/>
		<path class="st3" d="M361.4,361.8h-43.2c-0.5,0-0.9-0.4-1-0.9c-4.2-37.9-2.4-76.6,5.5-115.2c6.1-30,14-50.1,16.2-55.5
			c0.2-0.4,0.5-0.6,0.9-0.6c0.4,0,0.8,0.2,0.9,0.6c2.3,5.4,10.1,25.5,16.2,55.5c7.8,38.5,9.7,77.3,5.5,115.2
			C362.4,361.4,361.9,361.8,361.4,361.8z M339.8,190.4c0,0-0.2,0-0.2,0.1c-2.3,5.4-10.1,25.5-16.2,55.4
			c-7.8,38.4-9.7,77.1-5.4,114.9c0,0.1,0.1,0.2,0.2,0.2h43.2c0.1,0,0.2-0.1,0.2-0.2c4.2-37.8,2.4-76.5-5.4-114.9
			c-6.1-29.9-13.9-49.9-16.2-55.4C340,190.5,339.8,190.4,339.8,190.4z"/>
		<path class="st2" d="M380.9,314.2c-4.6,0-8.3,3.7-8.3,8.3v38.9h16.6v-38.9C389.2,317.9,385.5,314.2,380.9,314.2z"/>
		<path class="st3" d="M389.6,361.8h-17.4v-39.3c0-4.8,3.9-8.7,8.7-8.7s8.7,3.9,8.7,8.7V361.8z M373,361.1h15.8v-38.6
			c0-4.4-3.5-7.9-7.9-7.9c-4.4,0-7.9,3.5-7.9,7.9V361.1z"/>
		<path class="st2" d="M297.1,314.2c-4.6,0-8.3,3.7-8.3,8.3v38.9h16.6v-38.9C305.4,317.9,301.6,314.2,297.1,314.2z"/>
		<path class="st3" d="M305.8,361.8h-17.4v-39.3c0-4.8,3.9-8.7,8.7-8.7c4.8,0,8.7,3.9,8.7,8.7L305.8,361.8L305.8,361.8z
			 M289.2,361.1H305v-38.6c0-4.4-3.5-7.9-7.9-7.9c-4.4,0-7.9,3.5-7.9,7.9L289.2,361.1L289.2,361.1z"/>
		<path class="st3" d="M327.7,228.6c-0.4,0-0.8-0.3-0.8-0.8s0.3-0.8,0.8-0.8h0c0.4,0,0.8,0.3,0.8,0.8S328.2,228.6,327.7,228.6z"/>
		<path class="st3" d="M347.1,228.6c-0.4,0-0.8-0.3-0.8-0.8s0.3-0.8,0.8-0.8h0c0.4,0,0.8,0.3,0.8,0.8S347.5,228.6,347.1,228.6z
			 M342.3,228.6c-0.4,0-0.8-0.3-0.8-0.8s0.3-0.8,0.8-0.8h0c0.4,0,0.8,0.3,0.8,0.8S342.7,228.6,342.3,228.6z M337.4,228.6
			c-0.4,0-0.8-0.3-0.8-0.8s0.3-0.8,0.8-0.8h0c0.4,0,0.8,0.3,0.8,0.8S337.8,228.6,337.4,228.6z M332.6,228.6c-0.4,0-0.8-0.3-0.8-0.8
			s0.3-0.8,0.8-0.8h0c0.4,0,0.8,0.3,0.8,0.8S333,228.6,332.6,228.6z"/>
		<path class="st3" d="M351.9,228.6c-0.4,0-0.8-0.3-0.8-0.8s0.3-0.8,0.8-0.8h0c0.4,0,0.8,0.3,0.8,0.8S352.4,228.6,351.9,228.6z"/>
		<path class="st3" d="M396.3,351.1H283.7v0.8h112.6V351.1z"/>
		<path class="st3" d="M286.7,357.4c-0.4,0-0.8-0.3-0.8-0.8c0-0.4,0.3-0.8,0.8-0.8h0c0.4,0,0.8,0.3,0.8,0.8
			C287.5,357,287.2,357.4,286.7,357.4z"/>
		<path class="st3" d="M385.8,357.4L385.8,357.4c-0.5,0-0.8-0.3-0.8-0.8c0-0.4,0.3-0.8,0.8-0.8h0c0.4,0,0.8,0.3,0.8,0.8
			C386.6,357,386.2,357.4,385.8,357.4z M380.6,357.4L380.6,357.4c-0.5,0-0.8-0.3-0.8-0.8c0-0.4,0.3-0.8,0.8-0.8h0
			c0.4,0,0.8,0.3,0.8,0.8C381.3,357,381,357.4,380.6,357.4z M375.4,357.4L375.4,357.4c-0.5,0-0.8-0.3-0.8-0.8c0-0.4,0.3-0.8,0.8-0.8
			h0c0.4,0,0.8,0.3,0.8,0.8C376.1,357,375.8,357.4,375.4,357.4z M370.1,357.4L370.1,357.4c-0.5,0-0.8-0.3-0.8-0.8
			c0-0.4,0.3-0.8,0.8-0.8h0c0.4,0,0.8,0.3,0.8,0.8C370.9,357,370.6,357.4,370.1,357.4z M364.9,357.4L364.9,357.4
			c-0.5,0-0.8-0.3-0.8-0.8c0-0.4,0.3-0.8,0.8-0.8h0c0.4,0,0.8,0.3,0.8,0.8C365.7,357,365.4,357.4,364.9,357.4z M359.7,357.4
			L359.7,357.4c-0.5,0-0.8-0.3-0.8-0.8c0-0.4,0.3-0.8,0.8-0.8h0c0.4,0,0.8,0.3,0.8,0.8C360.5,357,360.1,357.4,359.7,357.4z
			 M354.5,357.4L354.5,357.4c-0.5,0-0.8-0.3-0.8-0.8c0-0.4,0.3-0.8,0.8-0.8h0c0.4,0,0.8,0.3,0.8,0.8
			C355.3,357,354.9,357.4,354.5,357.4z M349.3,357.4L349.3,357.4c-0.5,0-0.8-0.3-0.8-0.8c0-0.4,0.3-0.8,0.8-0.8h0
			c0.4,0,0.8,0.3,0.8,0.8C350.1,357,349.7,357.4,349.3,357.4z M344.1,357.4L344.1,357.4c-0.4,0-0.8-0.3-0.8-0.8
			c0-0.4,0.3-0.8,0.8-0.8h0c0.4,0,0.8,0.3,0.8,0.8C344.9,357,344.5,357.4,344.1,357.4z M338.9,357.4L338.9,357.4
			c-0.4,0-0.8-0.3-0.8-0.8c0-0.4,0.3-0.8,0.8-0.8h0c0.4,0,0.8,0.3,0.8,0.8C339.6,357,339.3,357.4,338.9,357.4z M333.7,357.4
			L333.7,357.4c-0.5,0-0.8-0.3-0.8-0.8c0-0.4,0.3-0.8,0.8-0.8h0c0.4,0,0.8,0.3,0.8,0.8C334.4,357,334.1,357.4,333.7,357.4z
			 M328.4,357.4L328.4,357.4c-0.5,0-0.8-0.3-0.8-0.8c0-0.4,0.3-0.8,0.8-0.8h0c0.4,0,0.8,0.3,0.8,0.8
			C329.2,357,328.9,357.4,328.4,357.4z M323.2,357.4L323.2,357.4c-0.5,0-0.8-0.3-0.8-0.8c0-0.4,0.3-0.8,0.8-0.8h0
			c0.4,0,0.8,0.3,0.8,0.8C324,357,323.7,357.4,323.2,357.4z M318,357.4L318,357.4c-0.5,0-0.8-0.3-0.8-0.8c0-0.4,0.3-0.8,0.8-0.8h0
			c0.4,0,0.8,0.3,0.8,0.8C318.8,357,318.4,357.4,318,357.4z M312.8,357.4L312.8,357.4c-0.5,0-0.8-0.3-0.8-0.8c0-0.4,0.3-0.8,0.8-0.8
			h0c0.4,0,0.8,0.3,0.8,0.8C313.6,357,313.2,357.4,312.8,357.4z M307.6,357.4L307.6,357.4c-0.5,0-0.8-0.3-0.8-0.8
			c0-0.4,0.3-0.8,0.8-0.8h0c0.4,0,0.8,0.3,0.8,0.8C308.4,357,308,357.4,307.6,357.4z M302.4,357.4L302.4,357.4
			c-0.5,0-0.8-0.3-0.8-0.8c0-0.4,0.3-0.8,0.8-0.8h0c0.4,0,0.8,0.3,0.8,0.8C303.2,357,302.8,357.4,302.4,357.4z M297.2,357.4
			L297.2,357.4c-0.5,0-0.8-0.3-0.8-0.8c0-0.4,0.3-0.8,0.8-0.8h0c0.4,0,0.8,0.3,0.8,0.8C297.9,357,297.6,357.4,297.2,357.4z
			 M292,357.4L292,357.4c-0.5,0-0.8-0.3-0.8-0.8c0-0.4,0.3-0.8,0.8-0.8h0c0.4,0,0.8,0.3,0.8,0.8C292.7,357,292.4,357.4,292,357.4z"
			/>
		<path class="st3" d="M391,357.4c-0.4,0-0.8-0.3-0.8-0.8c0-0.4,0.3-0.8,0.8-0.8h0c0.4,0,0.8,0.3,0.8,0.8
			C391.8,357,391.4,357.4,391,357.4z"/>
		<path class="st3" d="M353.4,231.4h-27.8v0.8h27.8V231.4z"/>
		<path class="st3" d="M292.2,327.7c-0.3,0-0.5-0.2-0.5-0.5v-2.4c0-0.3,0.2-0.5,0.5-0.5c0.3,0,0.5,0.2,0.5,0.5v2.4
			C292.7,327.5,292.5,327.7,292.2,327.7z"/>
		<path class="st3" d="M375.6,345.6c-0.3,0-0.5-0.2-0.5-0.5v-10.2c0-0.3,0.2-0.5,0.5-0.5c0.3,0,0.5,0.2,0.5,0.5v10.2
			C376.2,345.4,375.9,345.6,375.6,345.6z"/>
		<path class="st3" d="M375.6,332.8c-0.3,0-0.5-0.2-0.5-0.5v-1.6c0-0.3,0.2-0.5,0.5-0.5c0.3,0,0.5,0.2,0.5,0.5v1.6
			C376.2,332.6,375.9,332.8,375.6,332.8z"/>
		<path class="st3" d="M292.2,345.6c-0.3,0-0.5-0.2-0.5-0.5v-15.3c0-0.3,0.2-0.5,0.5-0.5c0.3,0,0.5,0.2,0.5,0.5v15.3
			C292.7,345.4,292.5,345.6,292.2,345.6z"/>
		<path class="st3" d="M339,260.5c5.2,0,9.5-4.2,9.5-9.5c0-5.2-4.2-9.5-9.5-9.5c-5.2,0-9.5,4.2-9.5,9.5
			C329.5,256.3,333.7,260.5,339,260.5z"/>
		<path class="st3" d="M339,263.7c-7,0-12.7-5.7-12.7-12.7c0-7,5.7-12.7,12.7-12.7c7,0,12.7,5.7,12.7,12.7
			C351.7,258,346,263.7,339,263.7z M339,239.1c-6.6,0-11.9,5.3-11.9,11.9c0,6.6,5.3,11.9,11.9,11.9c6.6,0,11.9-5.3,11.9-11.9
			C350.9,244.5,345.6,239.1,339,239.1z"/>
		<path class="st2" d="M340.2,242L330,252.3c0.3,2.3,1.5,4.3,3.2,5.7l12.8-12.8C344.5,243.5,342.5,242.3,340.2,242z"/>
		<path class="st2" d="M347.8,248.9c-0.1-0.5-0.3-0.9-0.5-1.4l-12,12c0.4,0.2,0.9,0.3,1.4,0.5L347.8,248.9z"/>
		<path class="st3" d="M348.5,351.5h-0.8v-37.9c0-4.4-3.5-7.9-7.9-7.9c-4.4,0-7.9,3.5-7.9,7.9v37.9h-0.8v-37.9
			c0-4.8,3.9-8.7,8.7-8.7c4.8,0,8.7,3.9,8.7,8.7V351.5z"/>
		<path class="st3" d="M350.9,351.5h-0.8v-38.3c0-5.7-4.6-10.3-10.3-10.3s-10.3,4.6-10.3,10.3v38.3h-0.8v-38.3
			c0-6.1,5-11.1,11.1-11.1c6.1,0,11.1,5,11.1,11.1V351.5z"/>
		<path class="st2" d="M341.4,330.7h4.7v1.6"/>
		<path class="st3" d="M346.2,332.8c-0.3,0-0.5-0.2-0.5-0.5v-1.1h-4.2c-0.3,0-0.5-0.2-0.5-0.5c0-0.3,0.2-0.5,0.5-0.5h4.7
			c0.3,0,0.5,0.2,0.5,0.5v1.6C346.7,332.6,346.4,332.8,346.2,332.8z"/>
		<path class="st2" d="M297.1,363.3c-3.4,0-6.2,2.8-6.2,6.2l1.9,29.3l1.7-10.8l2.6,24.2l3.3-27.9l1,14.5l1.9-29.3
			C303.3,366.1,300.5,363.3,297.1,363.3z"/>
		<path class="st3" d="M297.1,412.6c-0.2,0-0.4-0.1-0.4-0.3l-2.3-21.3l-1.2,7.9c0,0.2-0.2,0.3-0.4,0.3c-0.2,0-0.4-0.2-0.4-0.4
			l-1.9-29.3c0-3.7,3-6.6,6.6-6.6c3.6,0,6.6,3,6.6,6.6l-1.9,29.3c0,0.2-0.2,0.4-0.4,0.4c-0.2,0-0.4-0.2-0.4-0.4l-0.7-10.4l-2.8,23.9
			C297.4,412.5,297.3,412.6,297.1,412.6z M294.4,387.6C294.4,387.6,294.4,387.6,294.4,387.6c0.2,0,0.4,0.2,0.4,0.3l2.3,20.8
			l2.9-24.5c0-0.2,0.2-0.3,0.4-0.3c0.2,0,0.4,0.2,0.4,0.4l0.6,8.9l1.6-23.7c0-3.2-2.6-5.8-5.8-5.8s-5.8,2.6-5.8,5.8l1.7,25.8
			l1.1-7.3C294.1,387.8,294.2,387.6,294.4,387.6z"/>
		<path class="st2" d="M297.1,368.7c-1.3,0-2.3,1-2.3,2.3l2.3,15.9l2.3-15.9C299.4,369.7,298.4,368.7,297.1,368.7z"/>
		<path class="st3" d="M297.1,387.3c-0.2,0-0.4-0.1-0.4-0.3l-2.3-15.9c0,0,0,0,0-0.1c0-1.5,1.2-2.7,2.7-2.7s2.7,1.2,2.7,2.7
			c0,0,0,0,0,0.1l-2.3,15.9C297.5,387.1,297.3,387.3,297.1,387.3z M295.2,371l1.9,13.2l1.9-13.2c0-1.1-0.9-1.9-1.9-1.9
			C296.1,369.1,295.2,369.9,295.2,371z"/>
		<path class="st2" d="M380.8,363.3c-3.4,0-6.2,2.8-6.2,6.2l1.9,29.3l1.7-10.8l2.6,24.2l3.3-27.9l1,14.5l1.9-29.3
			C387.1,366.1,384.3,363.3,380.8,363.3z"/>
		<path class="st3" d="M380.8,412.6c-0.2,0-0.4-0.1-0.4-0.3l-2.3-21.3l-1.2,7.9c0,0.2-0.2,0.3-0.4,0.3c-0.2,0-0.4-0.2-0.4-0.4
			l-1.9-29.3c0-3.7,3-6.6,6.6-6.6c3.6,0,6.6,3,6.6,6.6l-1.9,29.3c0,0.2-0.2,0.4-0.4,0.4s-0.4-0.2-0.4-0.4l-0.7-10.4l-2.8,23.9
			C381.2,412.5,381,412.6,380.8,412.6z M378.2,387.6C378.2,387.6,378.2,387.6,378.2,387.6c0.2,0,0.4,0.2,0.4,0.3l2.3,20.8l2.9-24.5
			c0-0.2,0.2-0.4,0.4-0.3c0.2,0,0.4,0.2,0.4,0.4l0.6,8.9l1.6-23.7c0-3.2-2.6-5.8-5.8-5.8s-5.8,2.6-5.8,5.8l1.7,25.8l1.1-7.3
			C377.9,387.8,378,387.6,378.2,387.6z"/>
		<path class="st2" d="M380.9,368.7c-1.3,0-2.3,1-2.3,2.3l2.3,15.9l2.3-15.9C383.2,369.7,382.2,368.7,380.9,368.7z"/>
		<path class="st3" d="M380.9,387.3c-0.2,0-0.4-0.1-0.4-0.3l-2.3-15.9c0,0,0,0,0-0.1c0-1.5,1.2-2.7,2.7-2.7s2.7,1.2,2.7,2.7
			c0,0,0,0,0,0.1l-2.3,15.9C381.3,387.1,381.1,387.3,380.9,387.3z M379,371l1.9,13.2l1.9-13.2c0-1.1-0.9-1.9-1.9-1.9
			C379.9,369.1,379,369.9,379,371z"/>
		
			<linearGradient id="SVGID_4_" gradientUnits="userSpaceOnUse" x1="146.802" y1="391.4376" x2="301.787" y2="391.4376" gradientTransform="matrix(1 0 0 -1 0 514)">
			<stop  offset="0" style="stop-color:#A177FF"/>
			<stop  offset="1" style="stop-color:#02CEFF"/>
		</linearGradient>
		<path class="st5" d="M257.7,107.1c-14.2-7.5-25.2-32-44.7-43.3c-12.6-7.3-29.7-8.7-29.7-8.7l-36.5,62.6c0,0,17.1,1.4,29.7,8.7
			c19.5,11.3,30.5,35.8,44.7,43.3c17.9,10.9,31,5.9,44.1,20.2l36.5-62.6C288.7,113.1,275.7,118.1,257.7,107.1z"/>
		<path class="st2" d="M216.3,85.1c0.7,0.8,1.4,1.7,2.1,2.5c1.5,1.9,3,3.8,4.4,5.8c3.2,4.6,6.2,9.2,9.4,13.8
			c2.4,3.3,5.2,6.4,8.3,9.1c1.2,1.1,2.4,2.2,3.6,3.2c0.2,0.2,0.5,0.5,0.7,0.7c0.5,0.8,0.2,1.5-0.7,1.6c-0.5,0.1-1,0-1.5-0.1
			c-3.6-0.5-7.3-1.1-11-1.6c-1.1-0.2-1.2-0.1-0.7,1c1.9,4.9,3.9,9.9,5.9,14.8c1.8,4.2,3.6,8.4,5.5,12.6c0.8,1.8,0.6,2.4-1.3,3.3
			c-2.8,1.3-5.6,2.6-8.4,3.9c-2,0.9-2.8,0.6-3.3-1.5c-1.9-7-3.7-14.1-5.7-21.1c-0.9-3.3-2.1-6.5-3.3-9.8c-0.4-1-0.4-1-1.4-0.5
			c-2.4,1.4-4.8,2.8-7.2,4.3c-1.5,0.9-2.9,0.4-3-1.3c-0.2-1.8-0.1-3.6,0-5.3c0.5-7.6,1.5-15.2,2.8-22.7c0.7-3.9,1.4-7.8,2.1-11.6
			c0-0.1,0.1-0.1,0.1-0.2c0.3-0.6,0.6-1.5,1-1.7C215,84,215.7,84.7,216.3,85.1z M211.5,123c0.2-0.1,0.5-0.1,0.7-0.3
			c2.1-1.3,4.3-2.6,6.4-3.9c1.7-1.1,2.6-0.9,3.3,1c1.8,5.2,3.7,10.5,5.4,15.8c1.6,5,3.1,10.1,4.6,15.2c0.3,1,0.5,1.1,1.4,0.7
			c1.3-0.6,2.6-1.2,4-1.7c0.2-0.1,0.4-0.2,0.6-0.3c-0.1-0.3-0.1-0.6-0.2-0.8c-0.7-2-1.5-4.1-2.2-6.1c-3-8-5.9-15.9-8.9-23.9
			c-0.5-1.5,0.1-2.2,1.6-2.1c1.3,0.1,2.5,0.4,3.8,0.6c2,0.3,3.9,0.7,5.9,1c0.2,0,0.4,0,0.6,0c-0.1-0.2-0.3-0.3-0.4-0.5
			c-0.1-0.2-0.3-0.3-0.5-0.4c-2.5-2.7-5.1-5.3-7.3-8.1c-3.8-4.8-7.3-9.8-10.9-14.7c-0.7-1-1.5-1.9-2.3-2.9c-0.3-0.3-0.7-0.5-1-0.7
			c-0.1,0.3-0.3,0.7-0.4,1c0,0.1,0,0.2,0,0.3c-1,5.9-2.1,11.7-3,17.6"/>
		<path class="st2" d="M206.8,217.8l-32-60.2c-2.6-4.9-8.7-6.7-13.6-4.1l-46.5,24.7c-1.3,0.7-2.3,1.6-3.2,2.7
			c-2.4,3.1-2.8,7.4-0.9,10.8l32,60.2c2.6,4.9,8.7,6.7,13.6,4.1l46.5-24.7c1.3-0.7,2.3-1.6,3.2-2.7
			C208.3,225.5,208.7,221.3,206.8,217.8z"/>
		<path class="st2" d="M179.5,195.4c2.2,4.4,6.4,17,9.5,26.7c2.1,6.6,6.2,12.4,11.8,16.6c29.3,21.6,22.6,89.8,22.6,89.8
			s24-19.6,28.5-19.6c11.9,0,15.9,30.4,8.6,31.2c-5.1,0.5-6.4-2.9-6.4-2.9s-8.7,30.1-38.7,30.1c-26.5,0-33.2-61.7-34.4-76.6
			c-0.1-1.8-1.6-3.2-3.4-3.2c-1.2,0-2.3,0.6-2.9,1.6c-4.1,6.5-19,30.2-12.9,29.5c4.1-0.5,10.1,1,14.3,2.3c3.1,1,5.4,3.6,5.9,6.9
			c1.4,8.9,3.5,26.2-0.9,26.8c-5.9,0.8-11.3-8.9-11.3-8.9s-22,7.5-39.1-12.9c-17-20.4,18.4-80,19.1-82.2c0.3-0.8,0-1.8-0.7-2.3
			c-6.2-5.2-9.7-6.7-19.6-15c0,0,0.8,21.3-5.1,24.9c-17.4,10.5-42.7-9.4-51.3-10.7c-8.6-1.3-12.3-7.8-11.8-11c0.1-0.8,0.4-1.4,0.7-2
			l2.4-10.4c-1.9-2.5-1.5-6-0.6-7.5c0.9-1.5,2-3.8,3.2-3.8c1.2,0,5.1,1.1,2.1,6.4c-0.1,0.1,0,0.2,0.1,0.3l2.5,1.4l0.7,1.6l2,0.6
			c1.1,0.3,2.2,0.1,3.2-0.6c4.7-3.6,11.1,10.7,10.7,11.3c-0.1,0.1,0.8,0.7,0.9,0.7l15.3,5.7c0.1,0.1,0.3-0.1,0.2-0.2
			c-0.2-0.7-0.4-2.2,0.6-3.4c1-1.2,2.1-1.2,2.7-1.1c0.2,0,0.3-0.1,0.3-0.3c0.1-1.9,0.6-12.3-0.8-15c-1.6-3-6.7-16.1-3.5-26.8
			c1-3.3,2.1-5.2,4.3-7.3c0.6-4,3.3-5,5-4.3c1.3-3.4,3.8-4.1,5.3-2.9c1.3-0.6,1.5-0.6,1.5-0.6s-1.9-2.8-2.1-5.3
			c-0.2-3.4,5.4-8.8,9.2-10.7l8.5-3.9c3.2-2.8,7-2.5,8.2-2c2.9,1.2,11.1,9.2,11.1,9.2s5-2.1,10.9-3.3c2.9-2,5.1-1.8,5.3-0.8
			c1.3-1.7,6.2-0.9,4.6,0c1.2,0.1,2.4,0.3,3.4,0.7c8.9,3,17.7,13.4,23.9,19.9s12.1,8.1,20.7,19.9c6.5,8.9,12.7,22.7,15.3,29
			c0.8,1.9,2.3,3.3,4.3,3.8c3.8,1.1,9.7,4.4,9.2,13.6c1.3,5.7-2.2,6.9-2.1,7.5c0.1,1.4-0.1,3.4-1.9,4.3c-3,1.6-6.2-1.7-6.2-1.7
			c-8.6,3.2-10.5,0.7-12.6-2.5c-2.1-3.2,1.8-9.5-3.1-13.3c-4.8-3.8-15.4-16.8-16.5-19.4c-1.1-2.7-6.2-2.4-7.5-4.8
			c-1.3-2.4,1.7-3.4,0-5.1c-1.7-1.7-4-0.5-6.7-2.7c-2.7-2.1,0.8-6.2-4.3-8.3C186.5,200.2,186.5,200.2,179.5,195.4z"/>
		<path class="st3" d="M231.3,362.9c-0.2,0-0.4,0.1-0.5,0.1c-2.7,0.5-5.6-0.1-8.4-0.7c-3.4-0.7-6.8-1.4-10.1-0.2
			c-0.5,0.2-1.2,0.5-1.7,1c-1,1.1-1.1,2.2-0.9,2.9c0.3,0.1,0.6,0.2,0.9,0.3c0,0,0-0.1,0-0.1c-0.3-0.9-0.1-1.8,0.6-2.7
			c0.3-0.3,0.7-0.6,1.4-0.8c3.1-1.1,6.3-0.4,9.7,0.3c2.8,0.6,5.8,1.2,8.7,0.7c0.2,0,0.4-0.1,0.6-0.1c0.2,0,0.4-0.1,0.5-0.1
			c0.5-0.3,1.1-0.5,1.6-0.8C232.9,362.6,232.1,362.8,231.3,362.9z"/>
		<path class="st3" d="M181.3,338c-0.6-6-1.7-12.2-2.6-15.7c-0.3-0.2-0.6-0.4-1-0.6c0.9,3.1,2.1,9.6,2.8,16.4
			c0.8,8,0.6,13.8-0.5,16.5c0.3,0,0.5,0,0.8,0C182.2,350.9,181.9,343.9,181.3,338z"/>
		<path class="st3" d="M140.9,341.8c0.3,0.2,0.6,0.3,0.8,0.5c0.3-0.1,0.6-0.3,0.9-0.4c1.7-0.9,2.8-2.4,3.3-4
			c0.7-2.6-0.3-5.2-1.4-6.9c-0.6-1.1-1.4-2.1-2.1-3c-0.6-0.9-1.3-1.7-1.9-2.7c-0.6-1-1.2-2.1-1.7-3.1c-0.6-1.1-1.1-2.3-1.8-3.4
			c-1.1-1.8-3.1-4.1-5.9-4.6c-2.1-0.4-3.7,0.1-4.9,1.5c-0.1,0.1-0.1,0.1-0.2,0.2c0,0.5,0,1,0,1.5c0.2-0.5,0.5-0.9,0.8-1.2
			c0.8-0.9,1.8-1.4,3-1.4c0.4,0,0.7,0,1.1,0.1c2.5,0.5,4.3,2.5,5.4,4.2c0.7,1,1.2,2.2,1.8,3.3c0.5,1.1,1.1,2.2,1.7,3.2
			c0.6,0.9,1.3,1.8,1.9,2.7c0.7,0.9,1.4,1.9,2.1,2.9c0.9,1.6,1.9,4,1.3,6.3C144.6,339.7,142.9,341.1,140.9,341.8z"/>
		<path class="st3" d="M214.2,191.3c-0.2-0.2-0.4-0.4-0.6-0.5c-1.3,3.2,2.8,7.8,4.3,9.5c5.5,6.2,8.3,7.5,9.7,7.5c0,0,0,0,0,0
			c-0.2-0.3-0.3-0.6-0.5-0.8c-1.8-0.4-4.9-3-8.7-7.2C217.2,198.3,213.4,194.1,214.2,191.3z"/>
		<path class="st3" d="M116.8,260c-0.3-1.6,3.1-4.3,6.1-6.8c1.2-0.9,2.4-1.9,3.4-2.8c0.6-0.6,1.3-1.3,2-2.1c0.2-0.2,0.4-0.5,0.6-0.7
			c0.1-0.4,0.1-0.9,0.2-1.3c-0.5,0.5-0.9,1-1.4,1.5c-0.7,0.8-1.3,1.5-1.9,2.1c-1,0.9-2.2,1.9-3.3,2.8c-3.5,2.8-6.7,5.4-6.4,7.5
			c0.1,0.3,0.2,0.6,0.4,0.9c0.3,0,0.6-0.1,1-0.2C117,260.6,116.8,260.3,116.8,260z"/>
		<path class="st2" d="M129.5,233.3c-8.2-8.8-10.6-17.8-10.6-25.6L129.5,233.3z"/>
		<path class="st3" d="M129.5,233.7c-0.1,0-0.2,0-0.3-0.1c-7.1-7.7-10.7-16.4-10.7-25.8c0-0.2,0.2-0.4,0.4-0.4c0,0,0,0,0,0
			c0.2,0,0.4,0.2,0.4,0.4c0,9.3,3.5,17.8,10.5,25.3c0.1,0.2,0.1,0.4,0,0.5C129.7,233.7,129.6,233.7,129.5,233.7z"/>
		<path class="st3" d="M126.7,213.2c-0.6-1.9-0.9-4.3-1-5.5c0-0.5,0.2-0.9,0.7-1.1l4.7-1.8c0.6-0.2,1.3,0.2,1.4,0.8
			c0.2,1.3,0.5,3.5,1,5.1c0.2,0.5-0.1,1.1-0.6,1.3l-4.8,1.8C127.5,214,126.9,213.7,126.7,213.2z"/>
		<path class="st3" d="M127.7,214c-0.2,0-0.3,0-0.5-0.1c-0.3-0.1-0.5-0.4-0.6-0.7c-0.6-1.9-0.9-4.3-1-5.5c-0.1-0.5,0.3-1,0.7-1.2
			l4.7-1.8c0.3-0.1,0.7-0.1,1,0.1c0.3,0.2,0.5,0.5,0.5,0.8c0.2,1.4,0.5,3.5,1,5.1c0.2,0.6-0.1,1.2-0.7,1.4l-4.8,1.8
			C127.9,214,127.8,214,127.7,214z M131.4,204.9c-0.1,0-0.2,0-0.3,0.1l-4.7,1.8c-0.4,0.1-0.6,0.5-0.6,0.9c0.1,1.3,0.4,3.7,1,5.5
			c0.1,0.2,0.2,0.4,0.5,0.5c0.2,0.1,0.5,0.1,0.7,0l4.8-1.8c0.4-0.2,0.7-0.6,0.5-1.1c-0.5-1.6-0.8-3.7-1-5.1c0-0.3-0.2-0.5-0.4-0.7
			C131.7,204.9,131.6,204.9,131.4,204.9z"/>
		<path class="st3" d="M137.4,197.5c0.8-0.2,1.2-1.1,0.9-1.9c-0.3-0.8-1.1-1.3-1.8-1.1c-0.8,0.2-1.2,1.1-0.9,1.9
			C135.8,197.3,136.6,197.8,137.4,197.5z"/>
		<path class="st3" d="M137,197.7c-0.7,0-1.3-0.5-1.6-1.2c-0.3-0.9,0.2-1.8,1-2.1c0.8-0.3,1.7,0.3,2,1.1c0.3,0.9-0.2,1.8-1,2.1
			C137.3,197.7,137.1,197.7,137,197.7z M136.8,194.6c-0.1,0-0.2,0-0.4,0.1c-0.7,0.2-1.1,1-0.8,1.7s1,1.2,1.7,1s1.1-1,0.8-1.7
			C138,195,137.4,194.6,136.8,194.6z"/>
		<path class="st3" d="M141.9,196.1c0.8-0.2,1.2-1.1,0.9-1.9c-0.3-0.8-1.1-1.3-1.8-1.1c-0.8,0.2-1.2,1.1-0.9,1.9
			C140.3,195.9,141.1,196.4,141.9,196.1z"/>
		<path class="st3" d="M141.5,196.3c-0.7,0-1.3-0.5-1.6-1.2c-0.3-0.9,0.2-1.8,1-2.1c0.4-0.1,0.8-0.1,1.2,0.1c0.4,0.2,0.7,0.6,0.8,1
			c0.1,0.4,0.1,0.9-0.1,1.3c-0.2,0.4-0.5,0.7-0.9,0.8C141.8,196.3,141.7,196.3,141.5,196.3z M141.4,193.2c-0.1,0-0.2,0-0.4,0.1
			c-0.7,0.2-1.1,1-0.8,1.7c0.2,0.8,1,1.2,1.7,1c0.3-0.1,0.6-0.3,0.8-0.7c0.2-0.3,0.2-0.7,0.1-1.1c-0.1-0.4-0.4-0.7-0.7-0.9
			C141.8,193.3,141.6,193.2,141.4,193.2z"/>
		<path class="st3" d="M146.4,194.7c0.8-0.2,1.2-1.1,0.9-1.9c-0.3-0.8-1.1-1.3-1.8-1.1c-0.8,0.2-1.2,1.1-0.9,1.9
			C144.9,194.5,145.7,194.9,146.4,194.7z"/>
		<path class="st3" d="M146.1,194.9c-0.7,0-1.3-0.5-1.6-1.2c-0.3-0.9,0.2-1.8,1-2.1c0.8-0.3,1.7,0.3,2,1.1c0.1,0.4,0.1,0.9-0.1,1.3
			c-0.2,0.4-0.5,0.7-0.9,0.8C146.3,194.9,146.2,194.9,146.1,194.9z M145.9,191.8c-0.1,0-0.2,0-0.4,0.1c-0.7,0.2-1.1,1-0.8,1.7
			c0.2,0.8,1,1.2,1.7,1c0.3-0.1,0.6-0.3,0.8-0.7c0.2-0.3,0.2-0.7,0.1-1.1C147.1,192.2,146.5,191.8,145.9,191.8z"/>
		<path class="st3" d="M138.3,202.9c0.8-0.2,1.2-1.1,0.9-1.9c-0.3-0.8-1.1-1.3-1.8-1.1c-0.8,0.2-1.2,1.1-0.9,1.9
			C136.8,202.7,137.6,203.1,138.3,202.9z"/>
		<path class="st3" d="M138,203.1c-0.7,0-1.3-0.5-1.6-1.2c-0.1-0.4-0.1-0.9,0.1-1.3c0.2-0.4,0.5-0.7,0.9-0.8c0.8-0.3,1.7,0.3,2,1.1
			c0.1,0.4,0.1,0.9-0.1,1.3c-0.2,0.4-0.5,0.7-0.9,0.8C138.2,203.1,138.1,203.1,138,203.1z M137.8,200c-0.1,0-0.2,0-0.4,0.1
			c-0.3,0.1-0.6,0.3-0.8,0.7c-0.2,0.3-0.2,0.7-0.1,1.1c0.2,0.8,1,1.2,1.7,1c0.3-0.1,0.6-0.3,0.8-0.7c0.2-0.3,0.2-0.7,0.1-1.1
			C139,200.4,138.4,200,137.8,200z"/>
		<path class="st3" d="M142.9,201.5c0.8-0.2,1.2-1.1,0.9-1.9c-0.3-0.8-1.1-1.3-1.8-1.1c-0.8,0.2-1.2,1.1-0.9,1.9
			C141.3,201.3,142.1,201.7,142.9,201.5z"/>
		<path class="st3" d="M142.5,201.7c-0.7,0-1.3-0.5-1.6-1.2c-0.3-0.9,0.2-1.8,1-2.1c0.8-0.3,1.7,0.3,2,1.1c0.3,0.9-0.2,1.8-1,2.1
			C142.8,201.7,142.6,201.7,142.5,201.7z M142.4,198.6c-0.1,0-0.2,0-0.4,0.1c-0.7,0.2-1.1,1-0.8,1.7c0.2,0.8,1,1.2,1.7,1
			c0.7-0.2,1.1-1,0.8-1.7C143.5,199,142.9,198.6,142.4,198.6z"/>
		<path class="st3" d="M147.4,200.1c0.8-0.2,1.2-1.1,0.9-1.9c-0.3-0.8-1.1-1.3-1.8-1.1c-0.8,0.2-1.2,1.1-0.9,1.9
			C145.8,199.9,146.7,200.3,147.4,200.1z"/>
		<path class="st3" d="M147,200.3c-0.3,0-0.5-0.1-0.8-0.2c-0.4-0.2-0.7-0.6-0.8-1c-0.1-0.4-0.1-0.9,0.1-1.3c0.2-0.4,0.5-0.7,0.9-0.8
			c0.8-0.3,1.7,0.3,2,1.1c0.3,0.9-0.2,1.8-1,2.1C147.3,200.3,147.2,200.3,147,200.3z M146.9,197.2c-0.1,0-0.2,0-0.4,0.1
			c-0.3,0.1-0.6,0.3-0.8,0.7c-0.2,0.3-0.2,0.7-0.1,1.1c0.1,0.4,0.3,0.7,0.7,0.9c0.3,0.2,0.7,0.2,1,0.1c0.7-0.2,1.1-1,0.8-1.7
			C148,197.6,147.5,197.2,146.9,197.2z"/>
		<path class="st3" d="M139.3,208.3c0.8-0.2,1.2-1.1,0.9-1.9c-0.3-0.8-1.1-1.3-1.8-1.1c-0.8,0.2-1.2,1.1-0.9,1.9
			C137.7,208.1,138.6,208.5,139.3,208.3z"/>
		<path class="st3" d="M138.9,208.5c-0.3,0-0.5-0.1-0.8-0.2c-0.4-0.2-0.7-0.6-0.8-1c-0.3-0.9,0.2-1.8,1-2.1c0.4-0.1,0.8-0.1,1.2,0.1
			c0.4,0.2,0.7,0.6,0.8,1c0.3,0.9-0.2,1.8-1,2.1C139.2,208.5,139.1,208.5,138.9,208.5z M138.8,205.4c-0.1,0-0.2,0-0.4,0.1
			c-0.7,0.2-1.1,1-0.8,1.7c0.1,0.4,0.4,0.7,0.7,0.9c0.3,0.2,0.7,0.2,1,0.1c0.7-0.2,1.1-1,0.8-1.7c-0.1-0.4-0.4-0.7-0.7-0.8
			C139.3,205.5,139,205.4,138.8,205.4z"/>
		<path class="st3" d="M143.9,206.9c0.8-0.2,1.2-1.1,0.9-1.9c-0.3-0.8-1.1-1.3-1.8-1.1c-0.8,0.2-1.2,1.1-0.9,1.9
			C142.3,206.6,143.1,207.1,143.9,206.9z"/>
		<path class="st3" d="M143.5,207.1c-0.3,0-0.5-0.1-0.8-0.2c-0.4-0.2-0.7-0.6-0.8-1c-0.1-0.4-0.1-0.9,0.1-1.3
			c0.2-0.4,0.5-0.7,0.9-0.8c0.8-0.3,1.7,0.3,2,1.1c0.3,0.9-0.2,1.8-1,2.1C143.8,207.1,143.6,207.1,143.5,207.1z M143.4,204
			c-0.1,0-0.2,0-0.4,0.1c-0.3,0.1-0.6,0.3-0.8,0.7c-0.2,0.3-0.2,0.7-0.1,1.1c0.1,0.4,0.4,0.7,0.7,0.9c0.3,0.2,0.7,0.2,1,0.1
			c0.7-0.2,1.1-1,0.8-1.7C144.5,204.4,143.9,204,143.4,204z"/>
		<path class="st3" d="M148.4,205.5c0.8-0.2,1.2-1.1,0.9-1.9c-0.3-0.8-1.1-1.3-1.8-1.1c-0.8,0.2-1.2,1.1-0.9,1.9
			C146.8,205.2,147.7,205.7,148.4,205.5z"/>
		<path class="st3" d="M148,205.7c-0.7,0-1.3-0.5-1.6-1.2c-0.3-0.9,0.2-1.8,1-2.1c0.4-0.1,0.8-0.1,1.2,0.1c0.4,0.2,0.7,0.6,0.8,1
			c0.1,0.4,0.1,0.9-0.1,1.3c-0.2,0.4-0.5,0.7-0.9,0.8C148.3,205.6,148.2,205.7,148,205.7z M147.9,202.6c-0.1,0-0.2,0-0.4,0.1
			c-0.7,0.2-1.1,1-0.8,1.7c0.2,0.8,1,1.2,1.7,1c0.3-0.1,0.6-0.3,0.8-0.7c0.2-0.3,0.2-0.7,0.1-1.1c-0.1-0.4-0.4-0.7-0.7-0.9
			C148.3,202.6,148.1,202.6,147.9,202.6z"/>
		<path class="st3" d="M124.8,204.1c-0.3-2-0.3-4.2-0.5-5.3c0-0.4,0.2-0.8,0.6-1l4.5-1.7c0.6-0.2,1.2,0.2,1.3,0.8
			c0.1,1.3,0.2,3.4,0.4,5c0.1,0.5-0.1,1-0.6,1.2l-4.5,1.7C125.5,204.9,124.9,204.6,124.8,204.1z"/>
		<path class="st3" d="M125.7,204.9c-0.2,0-0.4-0.1-0.6-0.2c-0.2-0.1-0.4-0.4-0.5-0.6c-0.2-1.4-0.3-2.8-0.4-3.9c0-0.6-0.1-1-0.1-1.4
			c-0.1-0.5,0.2-1,0.7-1.1l4.5-1.7c0.3-0.1,0.7-0.1,0.9,0.1c0.3,0.2,0.5,0.5,0.5,0.8c0.1,0.5,0.1,1.1,0.1,1.8c0.1,1,0.1,2.2,0.3,3.2
			c0.1,0.6-0.2,1.1-0.7,1.3l-4.5,1.7C125.9,204.9,125.8,204.9,125.7,204.9z M129.7,196.2c-0.1,0-0.2,0-0.3,0.1l-4.5,1.7
			c-0.4,0.1-0.6,0.5-0.5,0.9c0,0.4,0.1,0.9,0.1,1.4c0.1,1.1,0.1,2.6,0.4,3.9c0,0.2,0.1,0.4,0.3,0.5c0.2,0.1,0.5,0.2,0.8,0.1l4.5-1.7
			c0.5-0.2,0.6-0.7,0.5-1c-0.2-1-0.2-2.1-0.3-3.2c0-0.7-0.1-1.3-0.1-1.8c0-0.3-0.2-0.5-0.4-0.6C130,196.2,129.9,196.2,129.7,196.2z"
			/>
		<path class="st3" d="M123.9,169.1c-5.5,5,4.5,2,11.5-2.6c5.5-3.7,8.8-9,3.6-7.5"/>
		<path class="st3" d="M123.2,172.1c-0.5,0-0.9-0.1-1.1-0.4c-0.5-0.6,0-1.5,1.6-2.9c0.2-0.1,0.4-0.1,0.5,0c0.1,0.2,0.1,0.4,0,0.5
			c-1.6,1.4-1.5,1.9-1.5,1.9c0.1,0.1,1.1,0.3,4.4-0.9c2.6-1,5.6-2.6,8-4.1c4.1-2.7,6.4-5.9,6-6.8c-0.1-0.3-0.7-0.4-2.1,0
			c-0.2,0.1-0.4-0.1-0.5-0.3c-0.1-0.2,0.1-0.4,0.3-0.5c1.6-0.5,2.6-0.4,3,0.4c0.8,1.6-2.6,5.3-6.3,7.8
			C131.8,169.3,125.8,172.1,123.2,172.1z"/>
		<path class="st3" d="M215.4,367.6c-11.4,0-20.5-11.1-27-33c-5.1-17.3-7.1-36.5-7.8-43.9c-0.1-1.6-1.5-2.8-3.1-2.8
			c-1.1,0-2,0.5-2.6,1.4c-7.5,11.7-15.7,26.2-14.1,28.7c0.1,0.1,0.3,0.3,0.8,0.3c4.2-0.5,10.1,1,14.4,2.3c3.2,1,5.7,3.8,6.2,7.2
			c1.3,8.2,3,22.6,0.3,26.3c-0.4,0.6-0.9,0.9-1.5,1c-0.3,0-0.5,0.1-0.8,0.1c-5.3,0-9.8-7.3-10.7-8.8c-1.3,0.4-6.3,1.7-13,1.1
			c-7-0.6-17.3-3.6-26.2-14.2c-6.5-7.7-6.3-21.9,0.5-42c5.4-16,13.5-31.2,17-37.7c0.8-1.5,1.4-2.7,1.5-2.9c0.2-0.7,0-1.5-0.6-1.9
			c-2.7-2.2-4.8-3.7-7.3-5.5c-3-2.1-6.4-4.6-11.7-8.9c0.1,4.1,0.1,21.1-5.3,24.4c-5.6,3.4-12.5,4-21,1.8c-7.2-1.8-14.3-5.3-20-8.1
			c-4.4-2.2-8.1-4-10.5-4.4c-6-0.9-9.1-4.1-10.4-5.9c-1.4-1.9-2-3.9-1.7-5.5c0.1-0.7,0.4-1.4,0.8-2.1l2.3-10.2
			c-1.8-2.6-1.5-6.1-0.5-7.8c0.1-0.2,0.2-0.4,0.4-0.6c0.9-1.5,1.9-3.3,3.2-3.3c0.8,0,2.4,0.4,3.2,1.7c0.7,1.3,0.5,3-0.7,5l2.3,1.3
			c0.1,0,0.1,0.1,0.2,0.2l0.6,1.4l1.8,0.5c0.9,0.3,2,0.1,2.8-0.6c1.1-0.8,2.9-1.3,5.4,1.2c1.9,1.9,3.5,4.7,4.3,6.2
			c0.4,0.8,1.6,3.1,1.6,4.1c0.2,0.1,0.6,0.4,0.7,0.5l15,5.6c-0.1-0.8-0.2-2.2,0.8-3.4c1.1-1.3,2.3-1.3,2.9-1.3
			c0.3-5.6,0.3-12.7-0.8-14.7c-1.5-2.7-6.8-16.2-3.5-27.1c1-3.2,2.1-5.2,4.3-7.4c0.3-2,1.2-3.5,2.5-4.3c0.8-0.5,1.8-0.6,2.7-0.3
			c0.8-1.7,1.9-2.9,3.2-3.2c0.8-0.2,1.7-0.1,2.4,0.4c0.3-0.1,0.6-0.3,0.9-0.4c-0.5-0.9-1.7-3-1.9-5c-0.2-3.6,5.5-9.1,9.4-11.1
			l8.4-3.9c3.3-2.8,7.2-2.6,8.5-2c2.7,1.1,9.8,7.9,11,9.1c1.1-0.4,5.5-2.2,10.6-3.3c2.4-1.6,4.2-1.8,5-1.4c0.2,0.1,0.4,0.2,0.5,0.3
			c1.2-0.9,3.3-0.8,4.3-0.6c0.6,0.2,0.9,0.4,0.9,0.8c0,0,0,0.1,0,0.1c1,0.1,2,0.3,2.8,0.6c7.8,2.6,15.3,10.7,21.4,17.2
			c0.9,1,1.8,1.9,2.6,2.8c2.2,2.3,4.4,4,6.7,5.8c4,3.1,8.5,6.6,14,14.1c6.6,9.1,12.9,23.3,15.3,29c0.7,1.8,2.2,3.1,4,3.6
			c3.8,1.1,10,4.5,9.4,14c1,4.5-0.9,6.3-1.8,7.2c-0.1,0.1-0.3,0.3-0.3,0.3c0.1,1.6-0.2,3.6-2.1,4.7c-2.8,1.5-5.7-0.9-6.4-1.6
			c-8.8,3.2-10.8,0.4-12.8-2.7c-0.9-1.4-0.8-3.3-0.7-5.3c0.2-2.8,0.4-5.8-2.3-7.9c-4.9-3.8-15.5-16.9-16.6-19.6
			c-0.5-1.2-2-1.8-3.6-2.4c-1.5-0.6-3.1-1.1-3.9-2.4c-0.8-1.4-0.3-2.4,0.1-3.1c0.4-0.7,0.6-1.2-0.1-1.9c-0.8-0.8-1.6-0.9-2.7-1.1
			c-1.2-0.2-2.5-0.4-4-1.6c-1.3-1-1.3-2.4-1.4-3.7c-0.1-1.8-0.1-3.4-2.9-4.6c-4.8-2-5.1-2.2-10.9-6.2c2.3,5.2,6.1,16.5,8.9,25.4
			c2.1,6.7,6.2,12.3,11.7,16.4c6.7,5,12.1,12.8,16,23.3c3.1,8.4,5.3,18.4,6.4,29.9c1.7,17,0.7,32.2,0.4,36
			c4.1-3.3,23.9-19.1,28.1-19.1c3.5,0,6.7,2.5,9.1,7.2c2,3.9,3.3,9.1,3.5,14c0.2,5-0.7,10.4-4,10.7c-3.7,0.4-5.6-1.3-6.3-2.4
			c-0.7,2.2-3.1,8.3-7.9,14.4C240.9,359.3,231.1,367.6,215.4,367.6z M177.6,287.1c2,0,3.7,1.5,3.8,3.5c0.6,7.4,2.6,26.5,7.7,43.8
			c2.9,9.7,6.3,17.3,10.2,22.7c4.7,6.4,10.1,9.7,16.1,9.7c6.8,0,13-1.6,18.5-4.6c4.4-2.5,8.4-5.9,11.8-10.2c5.8-7.4,8-14.9,8-14.9
			c0-0.2,0.2-0.3,0.4-0.3c0.2,0,0.3,0.1,0.4,0.2c0.1,0.1,1.3,3.1,6,2.7c2.3-0.2,3.6-4.1,3.3-9.9c-0.4-8.3-4.5-20.5-11.8-20.5
			c-3.6,0-21.6,14.1-28.3,19.5c-0.1,0.1-0.3,0.1-0.4,0c-0.1-0.1-0.2-0.2-0.2-0.4c0-0.2,1.6-17.2-0.3-36.7
			c-1.2-11.4-3.3-21.4-6.4-29.7c-3.8-10.3-9.1-18.1-15.8-22.9c-5.6-4.1-9.8-9.9-12-16.8c-3.1-9.7-7.3-22.3-9.5-26.6
			c-0.1-0.2,0-0.3,0.1-0.5c0.1-0.1,0.3-0.1,0.5,0c6.9,4.8,6.9,4.8,12,7c3.2,1.3,3.3,3.4,3.3,5.3c0,1.3,0.1,2.3,1.1,3.1
			c1.3,1.1,2.5,1.2,3.7,1.4c1.1,0.2,2.2,0.4,3.1,1.3c1.1,1.1,0.6,2,0.2,2.8c-0.4,0.7-0.7,1.4-0.2,2.4c0.6,1,2,1.5,3.4,2.1
			c1.7,0.6,3.5,1.2,4.1,2.8c1,2.6,11.6,15.5,16.4,19.3c3,2.4,2.8,5.7,2.6,8.6c-0.1,1.9-0.2,3.6,0.5,4.8c2,2.9,3.7,5.5,12.2,2.3
			c0.1-0.1,0.3,0,0.4,0.1c0,0,3.1,3,5.7,1.6c1.6-0.8,1.8-2.6,1.7-4c0-0.3,0.2-0.6,0.6-0.9c0.9-0.9,2.5-2.4,1.6-6.6c0,0,0-0.1,0-0.1
			c0.5-9-5.3-12.2-8.9-13.3c-2-0.6-3.7-2.1-4.5-4.1c-2.4-5.7-8.7-19.9-15.3-28.9c-5.4-7.5-9.7-10.8-13.8-14
			c-2.3-1.8-4.5-3.5-6.8-5.9c-0.8-0.9-1.7-1.8-2.6-2.8c-6-6.4-13.5-14.5-21.1-17c-1-0.3-2.1-0.6-3.3-0.7c-0.2,0-0.3-0.1-0.3-0.3
			c0-0.2,0-0.3,0.2-0.4c-0.3-0.1-0.9-0.3-1.7-0.2c-1.1,0-2,0.3-2.4,0.8c-0.1,0.1-0.2,0.2-0.4,0.1c-0.1,0-0.3-0.2-0.3-0.3
			c0-0.1,0-0.2-0.3-0.3c-0.7-0.3-2.4,0-4.4,1.4c0,0-0.1,0-0.1,0.1c-5.8,1.2-10.8,3.3-10.8,3.3c-0.1,0.1-0.3,0-0.4-0.1
			c-0.1-0.1-8.2-8-11-9.1c-1.2-0.5-4.8-0.6-7.8,1.9c0,0-0.1,0-0.1,0.1l-8.5,3.9c-3.7,1.8-9.2,7.1-9,10.3c0.2,2.4,2,5.1,2,5.1
			c0.1,0.1,0.1,0.3,0,0.4c-0.1,0.1-0.2,0.2-0.3,0.2c0,0-0.3,0.1-1.4,0.6c-0.1,0.1-0.3,0-0.4-0.1c-0.5-0.4-1.2-0.6-1.9-0.4
			c-1.1,0.3-2.1,1.4-2.8,3.1c0,0.1-0.1,0.2-0.2,0.2c-0.1,0-0.2,0-0.3,0c-0.7-0.3-1.6-0.3-2.4,0.1c-1.1,0.6-1.9,2-2.1,3.8
			c0,0.1,0,0.2-0.1,0.2c-2.1,2.1-3.2,4-4.2,7.2c-3.2,10.7,2,23.9,3.5,26.5c1.5,2.7,1,12.3,0.9,15.2c0,0.2-0.1,0.4-0.2,0.5
			c-0.1,0.1-0.3,0.2-0.5,0.1c-0.5-0.1-1.5,0-2.3,1c-0.9,1.1-0.7,2.5-0.6,3.1c0.1,0.2,0,0.4-0.2,0.6c-0.2,0.1-0.4,0.2-0.6,0.1
			l-15.3-5.7c0,0-1-0.6-1.1-0.9c0-0.1,0-0.2,0-0.3c0-0.9-3.5-9-7.3-11c-1.1-0.6-2-0.5-2.8,0.1c-1,0.8-2.3,1-3.5,0.7l-2-0.6
			c-0.1,0-0.2-0.1-0.2-0.2l-0.7-1.5l-2.4-1.3c-0.1-0.1-0.2-0.2-0.3-0.3c0-0.2,0-0.3,0.1-0.4c1.1-1.9,1.4-3.4,0.8-4.4
			c-0.6-1-1.8-1.3-2.5-1.3c-0.9,0-1.8,1.7-2.5,2.9c-0.1,0.2-0.3,0.4-0.4,0.7c-0.9,1.5-1.1,4.8,0.6,7.1c0.1,0.1,0.1,0.2,0.1,0.3
			l-2.4,10.4c0,0,0,0.1,0,0.1c-0.3,0.6-0.6,1.2-0.7,1.8c-0.2,1.3,0.4,3.2,1.6,4.9c1.2,1.7,4.2,4.7,9.9,5.6c2.5,0.4,6.1,2.2,10.7,4.5
			c5.7,2.8,12.7,6.3,19.9,8.1c8.3,2.1,15,1.5,20.4-1.8c5.6-3.4,4.9-24.3,4.9-24.5c0-0.2,0.1-0.3,0.2-0.4c0.1-0.1,0.3,0,0.4,0.1
			c5.6,4.7,9.2,7.2,12.3,9.5c2.4,1.7,4.6,3.3,7.3,5.5c0.8,0.7,1.1,1.7,0.8,2.7c-0.1,0.3-0.5,1.1-1.6,3.1
			c-3.4,6.5-11.5,21.6-16.9,37.6c-6.7,19.8-7,33.7-0.7,41.2c8.7,10.4,18.8,13.3,25.7,13.9c7.5,0.7,12.9-1.2,13-1.2
			c0.2-0.1,0.4,0,0.5,0.2c0.1,0.1,5.3,9.4,10.9,8.7c0.4-0.1,0.7-0.3,1-0.7c1.9-2.5,1.7-11.9-0.4-25.7c-0.5-3.1-2.7-5.6-5.7-6.5
			c-4.2-1.3-10.1-2.7-14.1-2.3c-0.9,0.1-1.3-0.3-1.6-0.6c-0.4-0.6-1.4-2.3,4.9-14c3.3-6,7.2-12.3,9.2-15.5
			C175.1,287.8,176.3,287.1,177.6,287.1z M88.7,233.7c0,0.1,0,0.2-0.1,0.2C88.7,233.9,88.7,233.8,88.7,233.7z"/>
		<path class="st2" d="M41.8,290c-0.4,0-0.8-0.1-1.2-0.3c-1.1-0.6-1.5-2.1-0.8-3.2L177.2,50.9c0.6-1.1,2.1-1.5,3.2-0.8
			c1.1,0.6,1.5,2.1,0.8,3.2L43.8,288.9C43.3,289.6,42.6,290,41.8,290z"/>
		<path class="st3" d="M41.8,290.4c-0.5,0-0.9-0.1-1.4-0.4c-0.6-0.4-1.1-0.9-1.2-1.6c-0.2-0.7-0.1-1.4,0.3-2L176.9,50.7
			c0.4-0.6,0.9-1.1,1.6-1.2c0.7-0.2,1.4-0.1,2,0.3c1.3,0.7,1.7,2.4,1,3.7L44.1,289.1C43.6,289.9,42.7,290.4,41.8,290.4z M179.2,50.1
			c-0.2,0-0.3,0-0.5,0.1c-0.5,0.1-0.9,0.4-1.2,0.9L40.1,286.8c-0.3,0.4-0.3,1-0.2,1.5c0.1,0.5,0.4,0.9,0.9,1.2
			c0.3,0.2,0.6,0.3,1,0.3c0.7,0,1.3-0.4,1.7-1L180.9,53c0.5-0.9,0.2-2.1-0.7-2.6C179.9,50.2,179.5,50.1,179.2,50.1z"/>
		<path class="st2" d="M122.8,180.2c-22.3,0-40.4-18.1-40.4-40.4c0-22.3,18.1-40.4,40.4-40.4c22.3,0,40.4,18.1,40.4,40.4
			C163.3,162,145.1,180.2,122.8,180.2z M122.8,100c-21.9,0-39.7,17.8-39.7,39.7c0,21.9,17.8,39.7,39.7,39.7
			c21.9,0,39.7-17.8,39.7-39.7C162.5,117.8,144.7,100,122.8,100z"/>
		<path class="st2" d="M93.4,122.2c-0.2,0-0.3,0-0.5-0.1c-0.4-0.3-0.5-0.8-0.3-1.2c3.4-5.4,8.2-9.9,13.9-12.8c0.4-0.2,1-0.1,1.2,0.4
			c0.2,0.4,0.1,1-0.4,1.2c-5.4,2.8-10,7-13.2,12.1C94,122,93.7,122.2,93.4,122.2z"/>
		<path class="st2" d="M110.5,108.2c-0.4,0-0.7-0.2-0.8-0.6c-0.2-0.5,0.1-1,0.5-1.2c1.5-0.6,3.1-1.1,4.7-1.4c0.5-0.1,1,0.2,1.1,0.7
			c0.1,0.5-0.2,1-0.7,1.1c-1.5,0.3-3,0.8-4.5,1.4C110.7,108.2,110.6,108.2,110.5,108.2z"/>
		<path class="st2" d="M140.4,161.8c-2.4-1.4-3.1-8.8-3.1-8.8s-4-12.3-11.2-18.1c-7.2-5.8-24.8,1.1-24.8,1.1c-0.8,3.6,0,13.6,6,21.4
			c6,7.8,13.6,11.9,16.6,11.7c1.2-0.1,2.2-0.3,3.6-1.1c0.2-0.1,1.4,2,1.4,2C136.4,167.2,140.4,161.8,140.4,161.8z"/>
		<path class="st3" d="M128.7,170.4l-0.2-0.3c-0.4-0.7-0.9-1.4-1.1-1.7c-1.3,0.8-2.3,1-3.5,1.1c-0.1,0-0.2,0-0.3,0
			c-3.6,0-11.1-4.7-16.6-11.9c-6-7.8-6.9-18-6-21.7l0-0.2l0.2-0.1c0,0,4.5-1.8,9.8-2.8c7.2-1.4,12.3-0.8,15.4,1.7
			c3.8,3,6.6,7.9,8.4,11.3c1.9,3.8,2.9,6.9,2.9,6.9l0,0.1c0.2,2,1,7.5,2.9,8.5l0.4,0.2l-0.3,0.4c-0.2,0.2-4.1,5.5-11.7,8.3
			L128.7,170.4z M127.5,167.6c0,0,0.1,0,0.1,0c0.1,0,0.4,0.1,1.5,1.9c6.1-2.4,9.8-6.4,10.8-7.6c-2.2-1.8-2.9-8.2-2.9-8.8
			c-0.3-0.8-4.3-12.3-11-17.9c-6.5-5.3-22.3,0.4-24.2,1.1c-0.8,3.7,0.2,13.4,5.9,20.8c5.8,7.5,13.3,11.8,16.2,11.5
			c1.2-0.1,2.2-0.3,3.4-1.1C127.4,167.6,127.4,167.6,127.5,167.6z"/>
		<path class="st3" d="M119.6,159.2c0,0-0.1,0-0.1,0l-3.7-1.1c-0.2-0.1-0.3-0.2-0.3-0.4c0.6-4.2-0.2-10.2-4.3-12.9
			c-0.2-0.1-0.2-0.4-0.1-0.5c0.1-0.2,0.4-0.2,0.5-0.1c4.4,2.8,5.3,8.9,4.7,13.3l3.4,1c0.2,0.1,0.3,0.3,0.3,0.5
			C120,159.1,119.8,159.2,119.6,159.2z"/>
		<path class="st3" d="M120.5,162.6c-0.1,0-0.3-0.1-0.3-0.2c-0.1-0.2,0-0.4,0.2-0.5c1.4-0.8,2.6-1.9,3.4-3.4
			c0.1-0.2,0.3-0.3,0.5-0.2c0.2,0.1,0.3,0.3,0.2,0.5c-0.9,1.5-2.2,2.8-3.7,3.7C120.6,162.6,120.6,162.6,120.5,162.6z"/>
		<path class="st3" d="M102.7,148c0,0-0.1,0-0.1-0.1c0,0,0-0.1,0-0.1c0.2-0.7,0.9-2.9,3.4-4.1c0.6-0.3,1.2-0.4,1.6-0.4
			c0.5,0,0.8,0.2,0.8,0.4c0.1,0.3-0.3,0.7-0.9,1l-0.1,0.1c-1.6,0.7-3.5,1.6-4.6,3.1C102.8,148,102.7,148,102.7,148z"/>
		<path class="st3" d="M107.6,143.5c0.9,0,1,0.7-0.1,1.2c-1.6,0.7-3.6,1.6-4.7,3.2c0,0,0,0,0,0c0,0,0,0,0,0c0.2-0.6,0.9-2.9,3.4-4
			C106.6,143.6,107.2,143.5,107.6,143.5z M107.6,143.2c-0.5,0-1,0.2-1.7,0.4c-2.6,1.2-3.3,3.5-3.5,4.2c0,0.1,0,0.2,0.1,0.2
			c0.1,0.1,0.1,0.1,0.2,0.1c0.1,0,0.2,0,0.2-0.1c1-1.5,2.9-2.4,4.5-3.1l0.1-0.1c0.7-0.3,1.1-0.7,1-1.2
			C108.4,143.4,108.1,143.2,107.6,143.2z"/>
		<path class="st3" d="M114.9,140.3c-0.2,0-0.4-0.1-0.5-0.3c-0.1-0.4,0.2-1.2,1.4-1.9c1.1-0.7,2.2-1.1,3.5-1.1
			c0.8,0,1.4,0.2,1.7,0.2c0.1,0,0.1,0.1,0.1,0.2c0,0.1-0.1,0.1-0.2,0.1c-1.9,0.1-3.6,1.3-5,2.3l-0.1,0.1
			C115.5,140.2,115.1,140.3,114.9,140.3z"/>
		<path class="st3" d="M119.3,137.1c0.8,0,1.4,0.2,1.7,0.2c0,0,0,0.1,0,0.1c-2,0.1-3.8,1.4-5.2,2.4c-0.4,0.3-0.7,0.4-0.9,0.4
			c-0.7,0-0.5-1,0.9-2C117,137.4,118.3,137.1,119.3,137.1z M119.3,136.9c-1.3,0-2.5,0.4-3.6,1.1c-1,0.7-1.6,1.5-1.4,2.1
			c0.1,0.3,0.3,0.4,0.6,0.4c0.3,0,0.7-0.1,1-0.4l0.1-0.1c1.4-1,3.1-2.2,5-2.3c0.1,0,0.3-0.1,0.3-0.3c0-0.1-0.1-0.3-0.2-0.3
			C120.7,137,120.1,136.9,119.3,136.9z"/>
		<path class="st3" d="M127.3,167.6c0,0,5-2.5,6.3-9.3c0-0.2,0.3-0.2,0.4,0c0,2.4,0,6.1-1.4,8.7c-1.4,2.6-3.6,3-3.6,3L127.3,167.6z"
			/>
		<path class="st3" d="M109.7,150.8c0.5-0.3,0.5-1.1,0.1-1.8c-0.4-0.7-1.1-1.1-1.6-0.9c-0.5,0.3-0.5,1.1-0.1,1.8
			C108.5,150.7,109.2,151,109.7,150.8z"/>
		<path class="st3" d="M121.5,144.4c0.5-0.3,0.5-1.1,0.1-1.8c-0.4-0.7-1.1-1.1-1.6-0.9s-0.5,1.1-0.1,1.8
			C120.3,144.3,121.1,144.6,121.5,144.4z"/>
		<path class="st3" d="M140.5,131.9c0.1,0.5,0.4,1.7,0.9,4.2c0.8,4.3-0.7,12.7-2.9,15.7c-1.1,1.4-0.9,2.4-0.7,3
			c0,0.1-0.1,0.2-0.1,0.1c-0.8-0.8-2.6-3.1-1.7-8.8c1.2-7.2-4.4-5.4-4.4-5.4s-3.5,2.7-6.7,1.7c-3.2-1.1-2.1-2.7-6-3.5
			c-3.9-0.8-4.7,2-8.4,1.4c-3.7-0.6-2.3-3.1-5.5-3.3c-6.1-0.5-7.2-3-5.8-6.2c1.3-3.2,7.8-13,22.8-12.2c3.6,0.2,6.6,1,9,2.1
			c0,0,3.7-8.3,8.8-4c3.4,2.8,2,7,5.6,9.7c3.6,2.6,7.9,1.8,10.3,6.3c2.4,4.5-2,8.2-1.3,11c0.7,2.7,3.3,3.1,3.3,6.8
			c0.1,7.5-17.7,12-13.5-1.1c1.4-4.5-1-3.9,1.4-8.8c1.1-2.4-0.5-4.4-2.1-5.6C141.7,133.6,140.5,131.9,140.5,131.9z"/>
		<path class="st2" d="M133.3,140.5c-0.2,0-0.4-0.2-0.4-0.4c0-2-0.6-3.2-2.1-4.1c-0.5-0.4-1.4-0.4-2.3-0.4c-1.4,0-3.1,0-4.1-1.4
			c-0.1-0.1-0.2-0.3-0.3-0.5c-0.6-1-1.4-2.5-3.4-2.5c-1.1,0-1.9,0.3-2.9,0.5c-1.2,0.4-2.5,0.8-4.3,0.5c-1.8-0.3-2.5-1.1-3.3-1.9
			c-0.6-0.7-1.2-1.3-2.4-1.7c-2.8-1-6.5-1-6.5-1c-0.2,0-0.4-0.2-0.4-0.4c0-0.2,0.2-0.4,0.4-0.4c0.2,0,3.9,0,6.8,1
			c1.4,0.5,2.1,1.2,2.8,1.9c0.7,0.8,1.3,1.4,2.8,1.6c1.7,0.3,2.8-0.1,4-0.4c0.9-0.3,1.9-0.6,3.1-0.6c2.5,0,3.5,1.9,4.1,2.9
			c0.1,0.2,0.2,0.3,0.3,0.5c0.8,1.1,2,1.1,3.4,1.1c1,0,2,0,2.8,0.5c1.6,1.1,2.3,2.5,2.4,4.7C133.7,140.3,133.5,140.5,133.3,140.5
			C133.3,140.5,133.3,140.5,133.3,140.5z"/>
		<path class="st2" d="M131.4,139.6c-0.1,0-0.2,0-0.3-0.1c-1.5-1.5-2.9-1.4-4.2-1.3c-0.7,0.1-1.4,0.1-2.1-0.1c-1-0.4-1.6-1.2-2.2-2
			c-0.8-1.1-1.5-2.1-3.4-2.2c-1.6-0.1-2.8,0.4-3.9,0.8c-1.1,0.4-2.1,0.8-3.3,0.6c-1.2-0.2-1.8-1-2.5-1.7c-1-1.1-2.1-2.4-5.4-2.4
			c0,0,0,0,0,0c-0.2,0-0.4-0.2-0.4-0.4c0-0.2,0.2-0.4,0.4-0.4c3.7-0.1,5,1.4,6,2.6c0.7,0.7,1.2,1.3,2.1,1.5c1,0.2,1.9-0.2,2.9-0.6
			c1.1-0.4,2.4-1,4.2-0.9c2.2,0.1,3.1,1.4,3.9,2.5c0.5,0.7,1,1.4,1.8,1.7c0.5,0.2,1.1,0.1,1.7,0.1c1.3-0.1,3-0.3,4.8,1.5
			c0.2,0.1,0.2,0.4,0,0.5C131.6,139.6,131.5,139.6,131.4,139.6z"/>
		<path class="st2" d="M128.2,144.3c-0.5-4.8,3-6.8,5.5-5.7c2.5,1.1,5.6,8.4,0,11.7"/>
		<path class="st3" d="M133.7,150.7c-0.1,0-0.3-0.1-0.3-0.2c-0.1-0.2,0-0.4,0.1-0.5c2.6-1.5,3-3.8,2.9-5.5c-0.1-2.5-1.6-4.9-2.9-5.5
			c-1.1-0.5-2.3-0.3-3.3,0.4c-1.3,1-1.9,2.7-1.7,4.9c0,0.2-0.1,0.4-0.3,0.4c-0.2,0-0.4-0.1-0.4-0.3c-0.3-2.4,0.5-4.5,2-5.6
			c1.2-0.9,2.8-1.1,4.1-0.5c1.5,0.7,3.2,3.2,3.4,6.2c0.1,2.6-1,4.8-3.3,6.2C133.9,150.7,133.8,150.7,133.7,150.7z"/>
		<path class="st2" d="M133.4,140.7c-3.2,0-2.8,4.7-2.8,4.7c1,0.5,1.6,0.4,1.8,1.9c1.9-0.7,1.7-3.3,0-3.3"/>
		<path class="st3" d="M132.5,147.6c-0.1,0-0.1,0-0.2,0c-0.1-0.1-0.2-0.2-0.2-0.3c-0.2-1-0.4-1.1-1.1-1.4c-0.2-0.1-0.4-0.1-0.6-0.3
			c-0.1-0.1-0.2-0.2-0.2-0.3c0-0.1-0.3-2.8,1-4.2c0.5-0.6,1.2-0.9,2.1-0.9c0.2,0,0.4,0.2,0.4,0.4c0,0.2-0.2,0.4-0.4,0.4
			c-0.7,0-1.2,0.2-1.5,0.6c-0.9,1-0.9,2.8-0.8,3.4c0.1,0.1,0.2,0.1,0.3,0.1c0.7,0.3,1.1,0.5,1.4,1.5c0.6-0.4,0.8-1,0.7-1.5
			c-0.1-0.5-0.5-0.8-1-0.8c-0.2,0-0.4-0.2-0.4-0.4c0-0.2,0.2-0.4,0.4-0.4c0.9,0,1.6,0.6,1.7,1.4c0.2,0.9-0.3,2.1-1.6,2.6
			C132.6,147.6,132.6,147.6,132.5,147.6z"/>
		<path class="st2" d="M150.9,158.3c-1.5,0-3-0.4-4.1-1.3c-1.2-1.1-2.3-3.3-0.9-7.6c0.6-1.9,0.1-2.8-0.5-3.7
			c-0.7-1.2-1.5-2.4-0.1-5.2c0.7-1.4-1.8-4.8-4-7.1c1,4.1,0.8,7.9,0.5,10.4c-0.4,3.3-1.4,6.3-2.7,8c-0.9,1.2,0.1,4.9,0.4,5.6
			c0.1,0.2,0,0.4-0.2,0.5c-0.2,0.1-0.4,0-0.5-0.2c-0.2-0.5-1.5-4.7-0.3-6.3c2.2-2.9,4-11.1,1.8-18.9c-0.1-0.2,0-0.5,0.2-0.6
			c0.2-0.1,0.4-0.1,0.6,0.1c0.7,0.7,6.1,6.2,4.8,8.7c-1.2,2.5-0.6,3.4,0.1,4.5c0.6,1,1.3,2.1,0.6,4.4c-1,3.1-0.8,5.5,0.7,6.8
			c1.7,1.5,4.9,1.5,8,0.1c2.2-1,4.6-3.1,4.6-5.7c0-1.9-1.6-3-3.1-4c-1.2-0.8-2.5-1.7-2.8-3.1c-0.3-1.2,0.2-2.6,0.8-4
			c0.9-2,1.8-4.4,0.5-6.9c-1.4-2.7-3.5-3.4-5.8-4.2c-1.4-0.5-2.9-1-4.4-2c-1.9-1.4-2.5-3.3-3.1-5.1c-0.5-1.7-1-3.3-2.6-4.6
			c-1.2-1-2.3-1.3-3.5-1.1c-2.8,0.7-4.7,4.9-4.8,5c0,0.1-0.1,0.2-0.2,0.2s-0.2,0-0.3,0c-2.5-1.2-5.5-1.9-8.8-2.1
			c-13.6-0.8-20.6,7.5-22.4,11.9c-0.5,1.2-0.5,2.4,0,3.5c0.5,1.1,1.5,1.9,2.9,2.3c0.2,0.1,0.3,0.3,0.2,0.5c-0.1,0.2-0.3,0.3-0.5,0.2
			c-1.6-0.5-2.8-1.4-3.4-2.7c-0.6-1.2-0.6-2.7,0-4.1c1.9-4.6,9.2-13.2,23.2-12.4c3.3,0.2,6.2,0.9,8.8,2c0.5-1.1,2.4-4.4,5.1-5
			c1.4-0.3,2.8,0.1,4.1,1.2c1.7,1.4,2.3,3.2,2.8,5c0.5,1.8,1,3.4,2.8,4.7c1.3,1,2.8,1.5,4.2,1.9c2.3,0.8,4.7,1.6,6.2,4.5
			c1.5,2.9,0.4,5.5-0.5,7.6c-0.6,1.3-1.1,2.5-0.8,3.5c0.3,1.1,1.4,1.8,2.5,2.6c1.6,1.1,3.3,2.3,3.4,4.6c0,2.5-1.9,4.9-5,6.4
			C154.2,157.9,152.5,158.3,150.9,158.3z M140.5,132.5C140.5,132.5,140.5,132.5,140.5,132.5C140.5,132.5,140.5,132.5,140.5,132.5z"
			/>
		<path class="st3" d="M121,175.4c-0.9,0-1.6-0.2-2.2-0.5c-0.7-0.4-1.1-1.1-1.1-2c0-0.2,0.2-0.4,0.4-0.4c0.2,0,0.4,0.2,0.4,0.4
			c0,0.6,0.2,1.1,0.7,1.3c2.5,1.4,9.5-1.3,15.3-4.7c5.6-3.2,10.6-8.4,10.8-11.1c0-0.5-0.1-0.8-0.4-1.1c-0.2-0.1-0.2-0.4-0.1-0.5
			c0.1-0.2,0.4-0.2,0.5-0.1c0.5,0.4,0.7,1,0.7,1.7c-0.2,2.9-5.4,8.3-11.2,11.7C129.1,173.6,124.1,175.4,121,175.4z"/>
		<path class="st2" d="M63.3,229.1c-0.3-1.6-0.3-3.8,1.9-5.8c2.1-2,4.1-2.5,5.5-2.5c1.3,0,3.6,0.1,4.4,1.1c0.7,1,1.9,5-4.4,4.8"/>
		<path class="st3" d="M63,229.2c-0.4-2.5,0.2-4.5,2-6.2c2.5-2.3,4.6-2.6,5.7-2.6c1.9,0,3.9,0.1,4.7,1.2c0.4,0.6,1,2.2,0.3,3.5
			c-0.7,1.3-2.4,2-5,1.9l0-0.8c2.3,0.1,3.8-0.4,4.3-1.5c0.5-1,0-2.3-0.3-2.7c-0.7-0.9-3.1-0.9-4.1-0.9c-1,0-2.9,0.3-5.2,2.4
			c-2.1,1.9-2,4-1.8,5.5L63,229.2z"/>
		<path class="st2" d="M62,234.7c-1.3-3.1,1.3-5.6,1.3-5.6s3.7-4.1,7.7-2.3c4,1.8,6.4,3.1,6.6,4.7c0.3,1.6-0.4,3.3-2.6,3.4"/>
		<path class="st3" d="M75.1,235.3l0-0.8c0.8,0,1.4-0.3,1.8-0.7c0.4-0.5,0.6-1.3,0.5-2.2c-0.2-1.4-2.6-2.8-6.4-4.5
			c-3.7-1.7-7.2,2.2-7.3,2.2l0,0c-0.1,0.1-2.4,2.4-1.2,5.1l-0.7,0.3c-1.3-3.2,1.2-5.8,1.4-6c0.1-0.1,1-1.1,2.4-1.9
			c2-1.1,3.9-1.3,5.7-0.5c4.2,1.9,6.5,3.2,6.8,5c0.2,1.1-0.1,2.1-0.6,2.8C76.9,234.9,76.1,235.3,75.1,235.3z"/>
		<path class="st2" d="M62.9,233.5c1.1-1.1,2.6-1.8,3.5-2.1c1.6-0.5,2.4-0.8,7.5,2.7c5.1,3.5,2.1,7.5,0,7.9
			c-2.1,0.4-5.4-3.2-5.4-3.2l-2.1,1.5"/>
		<path class="st3" d="M73.7,242.3c-1.9,0-4.4-2.3-5.1-3.1l-1.9,1.3c-0.2,0.1-0.4,0.1-0.5-0.1s-0.1-0.4,0.1-0.5l2.1-1.5
			c0.2-0.1,0.4-0.1,0.5,0.1c0.9,0.9,3.4,3.3,5,3.1c0.9-0.2,2.1-1.2,2.4-2.6c0.4-1.6-0.6-3.2-2.6-4.6c-4.9-3.4-5.7-3.1-7.2-2.6
			c-1,0.3-2.3,0.9-3.4,2c-0.1,0.2-0.4,0.2-0.5,0c-0.2-0.1-0.2-0.4,0-0.5c1.2-1.2,2.6-1.8,3.7-2.2c1.8-0.6,2.8-0.7,7.9,2.7
			c3.1,2.1,3.1,4.3,2.9,5.4c-0.4,1.7-1.8,2.9-3.1,3.1C73.9,242.3,73.8,242.3,73.7,242.3z"/>
		<path class="st3" d="M117,239.9c-0.1,0-0.2,0-0.3-0.1c-3.3-3-7.3-3.9-8.2-4.1c-0.3,0-0.5-0.1-0.5-0.3c0-0.2,0-0.3,0.2-0.4
			c0.1,0,0.1,0,0.3,0l0,0c0,0,0.1,0,0.2,0c0,0,0,0,0.1,0c0.8,0.1,2.1,0.5,2.7,0.7c1.6,0.6,3.8,1.6,5.9,3.5c0.2,0.1,0.2,0.4,0,0.5
			C117.2,239.9,117.1,239.9,117,239.9z"/>
		<path class="st2" d="M234.7,253c2.1,0.4,7.5,5.5,7.5,5.5L234.7,253z"/>
		<path class="st3" d="M242.3,258.9c-0.1,0-0.2,0-0.3-0.1c-1.5-1.4-5.7-5.1-7.3-5.4c-0.2,0-0.4-0.2-0.3-0.4c0-0.2,0.2-0.4,0.4-0.3
			c2.2,0.4,7.5,5.4,7.8,5.6c0.2,0.1,0.2,0.4,0,0.5C242.5,258.8,242.4,258.9,242.3,258.9z"/>
		<path class="st2" d="M246.7,248.3c0.8,1.2,3.7,6,3.7,10.2L246.7,248.3z"/>
		<path class="st3" d="M250.4,258.9c-0.2,0-0.4-0.2-0.4-0.4c0-3.9-2.6-8.5-3.6-9.9c-0.1-0.2-0.1-0.4,0.1-0.5
			c0.2-0.1,0.4-0.1,0.5,0.1c1,1.5,3.8,6.3,3.8,10.4C250.7,258.7,250.6,258.9,250.4,258.9z"/>
		<path class="st3" d="M253.1,252.9c-0.2,0-0.4-0.2-0.4-0.4c0-3.5-1.4-6-2.3-7.6c-0.1-0.2-0.2-0.4-0.3-0.5c-0.1-0.2,0-0.4,0.2-0.5
			c0.2-0.1,0.4,0,0.5,0.2c0.1,0.2,0.2,0.3,0.3,0.5c0.9,1.6,2.4,4.3,2.4,8C253.4,252.7,253.3,252.9,253.1,252.9
			C253.1,252.9,253.1,252.9,253.1,252.9z"/>
		<path class="st3" d="M225,340.4c-0.1,0-0.2,0-0.3-0.1c-2.3-2.6-2.1-11.7-1.4-15c0-0.2,0.2-0.3,0.5-0.3c0.2,0,0.3,0.3,0.3,0.5
			c-0.8,3.6-0.8,12.1,1.2,14.3c0.1,0.2,0.1,0.4,0,0.5C225.2,340.4,225.1,340.4,225,340.4z"/>
		<path class="st3" d="M115.7,245.6c-0.1,0-0.2-0.1-0.3-0.2c-0.8-1.1-1.8-2.1-2.8-2.9c-2.1-1.5-4-1.5-5.3-1.5c-0.7,0-1.2,0-1.5-0.3
			c-0.1-0.1-0.2-0.3-0.2-0.5c0-0.7,0.3-1.1,0.9-1.3c2-0.6,6.9,2.5,9.5,6c0.1,0.2,0.1,0.4-0.1,0.5
			C115.9,245.6,115.8,245.6,115.7,245.6z M108,240.3c0.5,0,1,0,1.5,0.1c-1.2-0.6-2.2-0.9-2.7-0.7c-0.2,0.1-0.3,0.2-0.3,0.6
			c0.1,0.1,0.6,0,0.9,0C107.5,240.3,107.7,240.3,108,240.3z"/>
		<path class="st3" d="M179.5,195.7c-0.1,0-0.2,0-0.3-0.1c-5.2-5.5-12.2-20.8-11.1-29.4c0.3-2.4,1.3-4.2,2.9-5.1
			c0.2-0.1,0.4-0.1,0.5,0.1c0.1,0.2,0.1,0.4-0.1,0.5c-1.4,0.8-2.2,2.4-2.5,4.6c-1.1,8.3,5.8,23.3,10.9,28.7c0.1,0.2,0.1,0.4,0,0.5
			C179.7,195.7,179.6,195.7,179.5,195.7z"/>
		<path class="st3" d="M179.5,195.7c-0.1,0-0.2,0-0.2-0.1c-4.4-3.3-8.5-8.2-11.6-13.8c-2.9-5.2-4.5-10.5-4.4-14.4
			c0.1-2.6,0.9-4.6,2.4-5.6c0.2-0.1,0.4-0.1,0.5,0.1c0.1,0.2,0.1,0.4-0.1,0.5c-1.3,0.9-2,2.6-2.1,5c-0.2,9.2,8.1,21.8,15.7,27.5
			c0.2,0.1,0.2,0.4,0.1,0.5C179.7,195.7,179.6,195.7,179.5,195.7z"/>
		<path class="st2" d="M171.2,161.5c2.7-1.6,5-0.7,4.6,0c1.2,0.1,2.4,0.3,3.4,0.7"/>
		<path class="st3" d="M179.2,162.5c0,0-0.1,0-0.1,0c-1-0.3-2.1-0.6-3.3-0.7c-0.1,0-0.2-0.1-0.3-0.2c-0.1-0.1-0.1-0.2,0-0.3
			c0,0-0.2-0.1-0.4-0.2c-0.8-0.2-2.1-0.2-3.6,0.7c-0.2,0.1-0.4,0-0.5-0.1c-0.1-0.2,0-0.4,0.1-0.5c1.3-0.8,3.8-1.5,4.9-0.4
			c0.1,0.1,0.2,0.2,0.2,0.4c1.1,0.1,2.2,0.4,3.1,0.7c0.2,0.1,0.3,0.3,0.2,0.5C179.5,162.4,179.4,162.5,179.2,162.5z"/>
		<path class="st2" d="M179.5,195.4c-4.3-7.4-10.2-30.3-3.5-33.9L179.5,195.4z"/>
		<path class="st3" d="M179.5,195.7c-0.1,0-0.3-0.1-0.3-0.2c-3.5-6-8.3-22.7-6-30.7c0.5-1.9,1.4-3.1,2.7-3.8c0.2-0.1,0.4,0,0.5,0.2
			c0.1,0.2,0,0.4-0.2,0.5c-1,0.6-1.8,1.7-2.3,3.3c-2.2,7.7,2.6,24.3,5.9,30.1c0.1,0.2,0,0.4-0.1,0.5
			C179.6,195.7,179.6,195.7,179.5,195.7z"/>
		<path class="st3" d="M118.9,208.1c-0.1,0-0.2,0-0.3-0.1c-0.5-0.5-11.6-13.3-10.7-22.1c0-0.2,0.2-0.4,0.4-0.3
			c0.2,0,0.4,0.2,0.3,0.4c-0.6,6,4.9,14.2,8.2,18.6c-0.8-1.7-1.8-4-2.7-6.5c-2.6-7.3-3-12.9-1.1-16.5c0.1-0.2,0.3-0.3,0.5-0.2
			c0.2,0.1,0.3,0.3,0.2,0.5c-4.3,8.2,5.5,25.5,5.6,25.7c0.1,0.2,0,0.4-0.1,0.5C119.1,208.1,119,208.1,118.9,208.1z"/>
		<path class="st3" d="M118.9,208.1c-0.2,0-0.3-0.1-0.4-0.3c-1.8-6.2-3.2-11.7-3.6-16.6c-0.4-5.6,0.7-9.8,3.4-12.7
			c0.1-0.2,0.4-0.2,0.5,0c0.2,0.1,0.2,0.4,0,0.5c-2.6,2.8-3.6,6.6-3.2,12.1c0.4,4.9,1.9,10.3,3.6,16.5c0.1,0.2-0.1,0.4-0.3,0.5
			C119,208.1,119,208.1,118.9,208.1z"/>
		<path class="st3" d="M122.8,180.2c-2.2,0-4.3-0.2-6.4-0.5c-0.2,0-0.4-0.2-0.3-0.4c0-0.2,0.2-0.4,0.4-0.3c2.1,0.3,4.2,0.5,6.3,0.5
			c0.2,0,0.4,0.2,0.4,0.4C123.2,180,123,180.2,122.8,180.2z"/>
		<path class="st3" d="M126,180c-0.2,0-0.4-0.2-0.4-0.4c0-0.2,0.1-0.4,0.4-0.4c1-0.1,2-0.2,3-0.4c0.2,0,0.4,0.1,0.4,0.3
			c0,0.2-0.1,0.4-0.3,0.4C128.1,179.8,127,180,126,180C126,180,126,180,126,180z"/>
		<path class="st3" d="M131.1,179.3c-0.2,0-0.3-0.1-0.4-0.3c0-0.2,0.1-0.4,0.3-0.5c5.6-1.2,10.7-3.5,15.3-6.9
			c0.2-0.1,0.4-0.1,0.5,0.1c0.1,0.2,0.1,0.4-0.1,0.5C142.1,175.7,136.9,178.1,131.1,179.3C131.2,179.3,131.1,179.3,131.1,179.3z"/>
		<path class="st3" d="M149.1,170.3c-0.1,0-0.2,0-0.3-0.1c-0.1-0.2-0.1-0.4,0-0.5c4.3-3.8,7.8-8.5,10.1-13.7
			c0.1-0.2,0.3-0.3,0.5-0.2c0.2,0.1,0.3,0.3,0.2,0.5c-2.4,5.3-6,10.1-10.3,14C149.3,170.3,149.2,170.3,149.1,170.3z"/>
		<path class="st3" d="M254.2,337.5c0,0-0.1,0-0.1,0c-0.2-0.1-0.3-0.3-0.3-0.5c0.6-2,1.2-3,1.9-3.2c0.5-0.1,0.8,0.2,0.9,0.4
			c0.1,0.2,0.1,0.4-0.1,0.5c-0.2,0.1-0.4,0.1-0.5-0.1c0,0-0.1-0.1-0.2-0.1c-0.1,0-0.7,0.3-1.3,2.6
			C254.5,337.4,254.3,337.5,254.2,337.5z"/>
		<path class="st2" d="M79.6,237.4c-2.9-7,2.7-11.1,2.7-11.1l-0.5-1.8c-0.1-0.4-0.5-0.6-0.9-0.5c-1.5,0.5-5.1,1.5-6.4-1.1
			c-0.6-1.2,0.7-2.4,2.5-3.2c1.5-0.7,3.2-0.8,5.2-0.6c4.6,0.4,6.1,5.4,6.9,7.5c0.8,2.2,0.7,5.6,0.1,7.7"/>
		<path class="st3" d="M79.6,237.8c-0.2,0-0.3-0.1-0.4-0.2c-2.6-6.4,1.6-10.5,2.6-11.4l-0.4-1.5c0-0.1-0.1-0.1-0.1-0.2
			c-0.1,0-0.1,0-0.2,0c-1.6,0.6-5.5,1.6-6.9-1.3c-0.2-0.4-0.2-0.9-0.1-1.4c0.3-0.9,1.3-1.7,2.7-2.4c1.5-0.7,3.2-0.9,5.4-0.7
			c4.5,0.4,6.1,4.9,7,7.3c0.1,0.2,0.1,0.3,0.2,0.5c0.9,2.3,0.7,5.9,0.1,7.9c-0.1,0.2-0.3,0.3-0.5,0.3c-0.2-0.1-0.3-0.3-0.3-0.5
			c0.6-1.9,0.7-5.3-0.1-7.4c-0.1-0.2-0.1-0.3-0.2-0.5c-0.8-2.2-2.4-6.4-6.4-6.8c-2-0.2-3.6,0-5,0.6c-1.2,0.5-2.1,1.3-2.3,1.9
			c-0.1,0.3-0.1,0.5,0,0.8c1.1,2.3,4.5,1.4,5.9,0.9c0.3-0.1,0.6-0.1,0.8,0.1c0.3,0.1,0.4,0.4,0.5,0.7l0.5,1.8c0,0.2,0,0.3-0.1,0.4
			c-0.2,0.2-5.3,4-2.6,10.6c0.1,0.2,0,0.4-0.2,0.5C79.7,237.8,79.7,237.8,79.6,237.8z"/>
	</g>
</g>
</svg>
