<svg id="Layer_1" data-name="Layer 1" xmlns="http://www.w3.org/2000/svg" viewBox="0 0 1024 1023.98">
	<defs>
		<style>
			.cls-1{fill:#00112c;}
		</style>
	</defs>
	<title>
		vecteezy_search-icon-set-magnifying-symbol-collection-eps10-stock_ [Converted]
	</title>
	<path class="cls-1" d="M4669.3,4622.17c-224.46,0-407.08-182.61-407.08-407.08S4444.84,3808,4669.3,3808s407.08,182.62,407.08,407.08S4893.77,4622.17,4669.3,4622.17Zm0-723.66c-174.56,0-316.57,142-316.57,316.58s142,316.58,316.57,316.58,316.58-142,316.58-316.58S4843.87,3898.51,4669.3,3898.51Z" transform="translate(-4262.22 -3808.01)" />
	<path class="cls-1" d="M5273,4818.74h0a45.24,45.24,0,0,1-64,0L4923.26,4533a409.71,409.71,0,0,0,64-64L5273,4754.75A45.25,45.25,0,0,1,5273,4818.74Z" transform="translate(-4262.22 -3808.01)" />
</svg>
